/* XPM */
static char * about_xpm[] = {
"16 16 4 1",
" 	c #8787CECEEBEB",
".	c black",
"X	c white",
"o	c #000080800000",
" .            . ",
"...      XXX ...",
" .XXX  XXX    . ",
"... XX       ...",
"...   .  .   ...",
"...   .  . . ...",
"... . .  . . ...",
"................",
"... . .  . . ...",
"... . .  . . ...",
"...o.o.oo.o.o...",
"...o.o.oo.o.o...",
"...o.o.oo.o.o...",
"................",
"...o.o.oo.o.o...",
"...o.o.oo.o.o..."};
