/* XPM */
static char * addport_xpm[] = {
"16 16 5 1",
" 	c yellow",
".	c #008b00",
"X	c black",
"o	c blue",
"O	c white",
"                ",
" ........       ",
"                ",
"    X           ",
"    X      ooooo",
"     X   X oOOOO",
"      XXXXXoOOOO",
"         X oOOOO",
"           oOOOO",
"   ........oOOOO",
"           oOOOO",
"           oOOOO",
"   ........oOOOO",
"           oOOOO",
"           ooooo",
"                "};
