/* XPM */
static char * anchor_xpm[] = {
"16 16 3 1",
" 	c white",
".	c black",
"X	c grey75",
"                ",
"       ..       ",
"      ....      ",
"     ..  ..     ",
"     ..  ..     ",
"      ....      ",
"       ..       ",
"       ..       ",
"       ..       ",
"       ..       ",
" ...   ..   ... ",
" ...X  ..  X... ",
" .....X..X..... ",
"   X........X   ",
"     X....X     ",
"                "};
