/* XPM */
static char * arrow0_xpm[] = {
/* width height num_colors chars_per_pixel */
"16 16 108 2",
/* colors */
"  	c white",
". 	c #d8d8d8",
"X 	c #b2b2b9",
"o 	c #8c8c9a",
"O 	c #66667b",
"+ 	c #79798a",
"@ 	c #2d2d4c",
"# 	c #53536b",
"$ 	c #8d8d9a",
"% 	c #c7c7cc",
"& 	c #828299",
"* 	c #86869f",
"= 	c #71718c",
"- 	c #84849b",
"; 	c #83839a",
": 	c #84849c",
"> 	c #5a5a76",
", 	c #2e2e4c",
"< 	c #c5c5c9",
"1 	c #babacb",
"2 	c #7d7db1",
"3 	c #8181b6",
"4 	c #7e7eb3",
"5 	c #8181b5",
"6 	c #8080b3",
"7 	c #7878a9",
"8 	c #7979ac",
"9 	c #424266",
"0 	c #2f2f4d",
"q 	c #cbcbd9",
"w 	c #acacd5",
"e 	c #a4a4cb",
"r 	c #ababd4",
"t 	c #a9a9d2",
"y 	c #a3a3cb",
"u 	c #a1a1c8",
"i 	c #9d9dc5",
"p 	c #636386",
"a 	c #323250",
"s 	c #2f2f4e",
"d 	c #30304e",
"f 	c #41415c",
"g 	c #ababbd",
"h 	c #8686a7",
"j 	c #8585a6",
"k 	c #8484a4",
"l 	c #8383a3",
"z 	c #8181a2",
"x 	c #6d6d8d",
"c 	c #6b6b8b",
"v 	c #535373",
"b 	c #3a3a59",
"n 	c #393958",
"m 	c #343453",
"M 	c #393959",
"N 	c #3b3b5d",
"B 	c #a7a7b3",
"V 	c #bcbcc7",
"C 	c #7f7fa0",
"Z 	c #7c7c9c",
"A 	c #7d7d9d",
"S 	c #7e7e9e",
"D 	c #8383a4",
"F 	c #4b4b6b",
"G 	c #383857",
"H 	c #3d3d5e",
"J 	c #434365",
"K 	c #3f3f61",
"L 	c #454568",
"P 	c #48486c",
"I 	c #565684",
"U 	c #8484a8",
"Y 	c #bcbccc",
"T 	c #7d7dad",
"R 	c #8585b4",
"E 	c #8282b4",
"W 	c #8888b7",
"Q 	c #8b8bbc",
"! 	c #56567f",
"~ 	c #434367",
"^ 	c #4d4d72",
"/ 	c #4f4f76",
"( 	c #595984",
") 	c #5f5f96",
"_ 	c #7c7cb0",
"` 	c #ccccd2",
"' 	c #9d9db6",
"] 	c #8383a9",
"[ 	c #8282a7",
"{ 	c #a0a0ba",
"} 	c #9f9fb8",
"| 	c #777796",
" .	c #686886",
"..	c #555580",
"X.	c #626295",
"o.	c #6666a2",
"O.	c #8585b1",
"+.	c #9595b1",
"@.	c #5f5f95",
"#.	c #5e5e9c",
"$.	c #8888b6",
"%.	c #a6a6c2",
"&.	c #6666aa",
"*.	c #8a8ab9",
"=.	c #a5a5c4",
"-.	c #8989b9",
";.	c #cacad0",
":.	c #bebece",
/* pixels */
"              . X .             ",
"              . o O .           ",
"              . + @ # .         ",
"  . . . . . . . $ @ @ O .       ",
"% & * = & - ; : > , , @ # <     ",
"1 2 3 4 5 6 7 8 9 0 , , , O .   ",
"q w e r t y u i p a s d 0 , f . ",
"g h j k l z x c v b n b m M N B ",
"V C Z A S D F G H J K L P I U . ",
"Y T R E W Q ! , ~ ^ / ( ) _ .   ",
"` ' ] [ { } | +  ...X.o.O..     ",
"  . . . . . . . +.@.#.$..       ",
"              . %.&.*..         ",
"              . =.-.;.          ",
"              . :..             ",
"                                "};
