/* XPM */
static char * arrow180_xpm[] = {
/* width height num_colors chars_per_pixel */
"16 16 108 2",
/* colors */
"  	c white",
". 	c #d8d8d8",
"X 	c #c9c9cf",
"o 	c #b7b7d5",
"O 	c #9898d3",
"+ 	c #afafec",
"@ 	c #aaaadc",
"# 	c #a8a8ff",
"$ 	c #cacaee",
"% 	c #9d9dda",
"& 	c #b4b4ff",
"* 	c #bdbdff",
"= 	c #c8c8ff",
"- 	c #ccccd5",
"; 	c #a3a3e0",
": 	c #c6c6ff",
"> 	c #bebeff",
", 	c #9999be",
"< 	c #79798a",
"1 	c #66667b",
"2 	c #8e8e9d",
"3 	c #9191a3",
"4 	c #6e6e88",
"5 	c #7f7f94",
"6 	c #b5b5be",
"7 	c #aeaeea",
"8 	c #babaff",
"9 	c #bfbffc",
"0 	c #b3b3fa",
"q 	c #b4b4fc",
"w 	c #7474ac",
"e 	c #2d2d4c",
"r 	c #47476b",
"t 	c #7272a2",
"y 	c #7373a3",
"u 	c #6c6c9b",
"i 	c #7070a0",
"p 	c #aaaac0",
"a 	c #bfbff2",
"s 	c #b4b4f4",
"d 	c #a5a5ed",
"f 	c #9a9ae2",
"g 	c #9797dd",
"h 	c #9191d4",
"j 	c #656597",
"k 	c #2f2f4e",
"l 	c #2e2e4d",
"z 	c #3b3b5a",
"x 	c #9d9dc4",
"c 	c #8f8fb5",
"v 	c #9797bd",
"b 	c #8e8eb3",
"n 	c #babacc",
"m 	c #a4a4b9",
"M 	c #6d6da3",
"N 	c #68689c",
"B 	c #69699c",
"V 	c #676799",
"C 	c #7070a3",
"Z 	c #6c6c9e",
"A 	c #646490",
"S 	c #464665",
"D 	c #434362",
"F 	c #707090",
"G 	c #797998",
"H 	c #7b7b9b",
"J 	c #7c7c9c",
"K 	c #adadbb",
"L 	c #68687d",
"P 	c #373758",
"I 	c #3b3b5c",
"U 	c #45456a",
"Y 	c #4a4a71",
"T 	c #4f4f78",
"R 	c #63638b",
"E 	c #7d7d9f",
"W 	c #7e7ea0",
"Q 	c #8686a7",
"! 	c #8787a8",
"~ 	c #8c8cae",
"^ 	c #bdbdc8",
"/ 	c #67677b",
"( 	c #30304f",
") 	c #313151",
"_ 	c #3d3d5f",
"` 	c #62628a",
"' 	c #8d8dbe",
"] 	c #8a8abb",
"[ 	c #8d8dc0",
"{ 	c #8989bb",
"} 	c #8b8bbe",
"| 	c #8f8fc1",
" .	c #9494c7",
"..	c #c3c3d4",
"X.	c #323252",
"o.	c #535376",
"O.	c #9393b3",
"+.	c #8181a8",
"@.	c #9292b3",
"#.	c #9696b8",
"$.	c #9494b5",
"%.	c #a1a1bc",
"&.	c #9090b0",
"*.	c #aeaec1",
"=.	c #7a7a8b",
"-.	c #2e2e4c",
";.	c #7b7b8c",
":.	c #c5c5c9",
/* pixels */
"              .                 ",
"            X o                 ",
"          . O + .               ",
"        . @ # $ .               ",
"      . % & * = . . . . . . .   ",
"    - ; & : > , < 1 2 3 4 4 5 6 ",
"  . 7 8 9 0 q w e e r t y u i p ",
". a s d f g h j k l z x c v b n ",
"m M N B V C Z A S D S F G H J K ",
". L P I U Y T R E W W J Q ! ~ ^ ",
"  . / ( ) P _ ` ' ] [ { } |  ...",
"    . 1 l k X.o.O.+.@.#.$.%.&.*.",
"      . =.-.l ;.. . . . . . . . ",
"        . 1 -./ .               ",
"          . 1 / .               ",
"            . :.                "};
