/* XPM */
static char * arrow270_xpm[] = {
/* width height num_colors chars_per_pixel */
"16 16 110 2",
/* colors */
"  	c white",
". 	c #b5b5bd",
"X 	c #bfbfd1",
"o 	c #d9d9d9",
"O 	c #bbbbc6",
"+ 	c #ababb5",
"@ 	c #a3a3ad",
"# 	c #c6c6c9",
"$ 	c #d8d8d8",
"% 	c #71718c",
"& 	c #7979ad",
"* 	c #b1b1da",
"= 	c #767696",
"- 	c #535372",
"; 	c #393958",
": 	c #7a7a8b",
"> 	c #737390",
", 	c #8181b6",
"< 	c #afafda",
"1 	c #6f6f8f",
"2 	c #373756",
"3 	c #2e2e4c",
"4 	c #8d8d9a",
"5 	c #83839a",
"6 	c #8282b5",
"7 	c #a3a3cb",
"8 	c #717191",
"9 	c #79798a",
"0 	c #7c7caf",
"q 	c #a7a7cf",
"w 	c #656584",
"e 	c #363654",
"r 	c #8c8c9a",
"t 	c #818197",
"y 	c #8787bc",
"u 	c #a1a1c9",
"i 	c #696989",
"p 	c #383857",
"a 	c #828298",
"s 	c #7d7db0",
"d 	c #a4a4cc",
"f 	c #646484",
"g 	c #66667b",
"h 	c #85859d",
"j 	c #7c7cae",
"k 	c #9b9bc1",
"l 	c #6c6c8c",
"z 	c #b2b2b9",
"x 	c #68687d",
"c 	c #8f8f9e",
"v 	c #4f4f6f",
"b 	c #686895",
"n 	c #7676a0",
"m 	c #7878a3",
"M 	c #646490",
"N 	c #7777ac",
"B 	c #a1a1ce",
"V 	c #c2c2ee",
"C 	c #c3c3e2",
"Z 	c #adadd2",
"A 	c #c5c5c9",
"S 	c #41415c",
"D 	c #2e2e4d",
"F 	c #323252",
"G 	c #3c3c5d",
"H 	c #4b4b70",
"J 	c #676792",
"K 	c #8b8bbe",
"L 	c #a4a4e3",
"P 	c #b4b4fc",
"I 	c #b5b5ff",
"U 	c #a4a4fd",
"Y 	c #8484dc",
"T 	c #8d8dbf",
"R 	c #67677b",
"E 	c #2f2f4e",
"W 	c #363656",
"Q 	c #4a4a6e",
"! 	c #656591",
"~ 	c #8686b9",
"^ 	c #a6a6e6",
"/ 	c #b8b8ff",
"( 	c #aaaaff",
") 	c #9090ea",
"_ 	c #9b9bc6",
"` 	c #303050",
"' 	c #3d3d5f",
"] 	c #5b5b85",
"[ 	c #8888bd",
"{ 	c #ababed",
"} 	c #b6b6ff",
"| 	c #9b9bf4",
" .	c #9090c4",
"..	c #c9c9cf",
"X.	c #54546c",
"o.	c #353555",
"O.	c #525279",
"+.	c #8282b6",
"@.	c #b0b0f6",
"#.	c #a7a7f9",
"$.	c #9494ca",
"%.	c #67677c",
"&.	c #3f3f62",
"*.	c #aeaef9",
"=.	c #a0a0d9",
"-.	c #575770",
";.	c #8484bb",
":.	c #adade5",
">.	c #b2b2ca",
",.	c #d0d0db",
/* pixels */
"          . X o O + @ #         ",
"        $ % & * = - ; : $       ",
"        $ > , < 1 2 3 4 $       ",
"        $ 5 6 7 8 2 3 9 $       ",
"        $ % 0 q w e 3 r $       ",
"        $ t y u i p 3 9 $       ",
"        $ a s d f p 3 g $       ",
"  $ $ $ $ h j k l p 3 9 $       ",
"$ z 4 x c v b n m M N B V C Z   ",
"  A S D F G H J K L P I U Y T $ ",
"    A R E W Q ! ~ ^ / ( ) _ $   ",
"      $ R ` ' ] [ { } |  ...    ",
"        $ X.o.O.+.@.#.$.$       ",
"          $ %.&.+.*.=.$         ",
"            $ -.;.:.$           ",
"              $ >.,.            "};
