/* XPM */
static char * arrow90_xpm[] = {
/* width height num_colors chars_per_pixel */
"16 16 107 2",
/* colors */
"  	c white",
". 	c #cbcbd3",
"X 	c #aaaac0",
"o 	c #d8d8d8",
"O 	c #b8b8f1",
"+ 	c #7171a6",
"@ 	c #67677c",
"# 	c #b1b1e5",
"$ 	c #afaff8",
"% 	c #6c6ca0",
"& 	c #363657",
"* 	c #54546b",
"= 	c #9c9ce5",
"- 	c #adadff",
"; 	c #a0a0e9",
": 	c #636393",
"> 	c #3e3e61",
", 	c #2f2f4e",
"< 	c #66667b",
"1 	c #cacad1",
"2 	c #9494d6",
"3 	c #b5b5ff",
"4 	c #b6b6ff",
"5 	c #9d9de9",
"6 	c #686899",
"7 	c #424266",
"8 	c #323252",
"9 	c #2e2e4d",
"0 	c #53536b",
"q 	c #c5c5c9",
"w 	c #9f9fdd",
"e 	c #b0b0fd",
"r 	c #c6c6ff",
"t 	c #aaaafa",
"y 	c #9696da",
"u 	c #6e6ea2",
"i 	c #48486e",
"p 	c #333354",
"a 	c #2e2e4c",
"s 	c #c8c8ce",
"d 	c #9393cb",
"f 	c #a3a3fd",
"g 	c #c0c0ff",
"h 	c #cfcfff",
"j 	c #acacff",
"k 	c #9090d3",
"l 	c #6e6ea1",
"z 	c #515179",
"x 	c #404064",
"c 	c #b4b4d0",
"v 	c #b1b1ee",
"b 	c #ccccee",
"n 	c #cecef2",
"m 	c #a1a1d3",
"M 	c #7373ac",
"N 	c #5a5a88",
"B 	c #5a5a84",
"V 	c #525277",
"C 	c #3c3c5e",
"Z 	c #343454",
"A 	c #7b7b8c",
"S 	c #7a7a8b",
"D 	c #79798a",
"F 	c #b2b2b9",
"G 	c #323250",
"H 	c #414160",
"J 	c #4c4c6b",
"K 	c #353554",
"L 	c #30304f",
"P 	c #40405f",
"I 	c #4a4a69",
"U 	c #7a7a8c",
"Y 	c #8f8f9e",
"T 	c #444467",
"R 	c #444463",
"E 	c #494968",
"W 	c #6f6f8a",
"Q 	c #7575a5",
"! 	c #9e9ec5",
"~ 	c #797999",
"^ 	c #545473",
"/ 	c #393958",
"( 	c #70708b",
") 	c #7575a4",
"_ 	c #9e9ec4",
"` 	c #555574",
"' 	c #3b3b5a",
"] 	c #8d8d9b",
"[ 	c #9090a1",
"{ 	c #6c6c9a",
"} 	c #9494b9",
"| 	c #8080a0",
" .	c #555575",
"..	c #3c3c5c",
"X.	c #9292a4",
"o.	c #686895",
"O.	c #9898be",
"+.	c #797998",
"@.	c #575776",
"#.	c #3d3d5c",
"$.	c #b5b5be",
"%.	c #b5b5c4",
"&.	c #c3c3cf",
"*.	c #aeaebc",
"=.	c #afafba",
"-.	c #a5a5af",
";.	c #b3b3ba",
/* pixels */
"            . X o               ",
"          o O + @ o             ",
"        o # $ % & * o           ",
"      o = - ; : > , < o         ",
"    1 2 3 4 5 6 7 8 9 0 q       ",
"  o w e r t y u i p , a 0 o     ",
"s d f g h j k l z x 8 9 a < o   ",
"c v b n m M N B V C Z A S D F o ",
"o o o o D a G H J K @ o o o o   ",
"      o < a L P I K U o         ",
"      o Y T G R E K @ o         ",
"      o W Q ! ~ ^ / U o         ",
"      o ( ) _ ~ ` ' ] o         ",
"      o [ { } |  ...S o         ",
"      o X.o.O.+.@.#.U o         ",
"        $.%.&.*.=.-.;.o         "};
