#define biggatelogo_width 207
#define biggatelogo_height 172
static unsigned char biggatelogo_bits[] = {
   0x00, 0x00, 0x00, 0x00, 0x00, 0x00, 0x00, 0x00, 0x00, 0x00, 0x00, 0x00,
   0x00, 0x00, 0x00, 0x00, 0x00, 0x00, 0x00, 0x00, 0x00, 0x00, 0x00, 0x00,
   0x00, 0x00, 0x00, 0x00, 0x00, 0x00, 0x00, 0x00, 0x00, 0x00, 0x00, 0x00,
   0x00, 0x00, 0x00, 0x00, 0x00, 0x00, 0x00, 0x00, 0x00, 0x00, 0x00, 0x00,
   0x00, 0x00, 0x00, 0x00, 0x00, 0x00, 0x00, 0x00, 0x00, 0x00, 0x00, 0x00,
   0x00, 0x00, 0x00, 0x00, 0x00, 0x00, 0x00, 0x00, 0x00, 0x00, 0x00, 0x00,
   0x00, 0x00, 0x00, 0x00, 0x00, 0x00, 0x00, 0x00, 0x00, 0x00, 0x00, 0x00,
   0x00, 0x00, 0x00, 0x00, 0x00, 0x00, 0x00, 0x00, 0x00, 0x00, 0x00, 0x00,
   0x00, 0x00, 0x00, 0x00, 0x00, 0x00, 0x00, 0x00, 0x00, 0x00, 0x00, 0x00,
   0x00, 0x00, 0x00, 0x00, 0x00, 0x00, 0x00, 0x00, 0x00, 0x00, 0x00, 0x00,
   0x00, 0x00, 0x00, 0x00, 0x00, 0x00, 0x00, 0x00, 0x00, 0x00, 0x00, 0xc0,
   0x1f, 0x00, 0x00, 0x00, 0x00, 0x00, 0x00, 0x00, 0x00, 0x04, 0x00, 0x00,
   0x10, 0x00, 0x00, 0x00, 0x00, 0x00, 0x00, 0x00, 0x00, 0xfc, 0x01, 0x00,
   0x00, 0xf8, 0xff, 0x00, 0x00, 0x00, 0x00, 0x00, 0x00, 0x00, 0x80, 0x3f,
   0x00, 0x00, 0xfe, 0x00, 0x00, 0x00, 0x00, 0x00, 0x00, 0x00, 0x80, 0xff,
   0x0f, 0x00, 0x00, 0xfe, 0xff, 0x03, 0x00, 0x00, 0x00, 0x00, 0x00, 0x00,
   0xc0, 0x7f, 0x00, 0x00, 0xff, 0x01, 0x00, 0x00, 0x00, 0x00, 0x00, 0x00,
   0xe0, 0xff, 0x3f, 0x00, 0x00, 0xff, 0xfd, 0x07, 0x00, 0x00, 0x00, 0x00,
   0x00, 0x00, 0xe0, 0xff, 0x00, 0x80, 0xff, 0x03, 0x00, 0x00, 0x00, 0x00,
   0x00, 0x00, 0xf0, 0xdf, 0x7f, 0x00, 0xc0, 0x0f, 0x80, 0x1f, 0x00, 0x00,
   0x00, 0x00, 0x00, 0x00, 0xf0, 0xff, 0x01, 0xc0, 0xff, 0x07, 0x00, 0x00,
   0x00, 0x00, 0x00, 0x00, 0xfc, 0x00, 0xf8, 0x01, 0xe0, 0x03, 0x00, 0x3e,
   0x00, 0x00, 0x00, 0x00, 0x00, 0x00, 0xf0, 0xff, 0x01, 0xc0, 0xff, 0x07,
   0x00, 0x00, 0x00, 0x00, 0x00, 0x00, 0x3e, 0x00, 0xe0, 0x03, 0xe0, 0x01,
   0x00, 0x3c, 0x00, 0x00, 0x00, 0x00, 0x00, 0x00, 0xf0, 0xff, 0x01, 0xc0,
   0xff, 0x07, 0x00, 0x00, 0x00, 0x00, 0x00, 0x00, 0x1e, 0x00, 0xc0, 0x03,
   0xf0, 0x00, 0x00, 0x78, 0x00, 0x00, 0x00, 0x00, 0x00, 0x00, 0xf8, 0xff,
   0x03, 0xe0, 0xff, 0x0f, 0x00, 0x00, 0x00, 0x00, 0x00, 0x00, 0x0f, 0x00,
   0x80, 0x07, 0x78, 0x00, 0x00, 0xf0, 0x00, 0x00, 0x00, 0x00, 0x00, 0x00,
   0xf0, 0xff, 0x01, 0xc0, 0xff, 0x07, 0x00, 0x00, 0x00, 0x00, 0x00, 0x80,
   0x07, 0x00, 0x00, 0x0f, 0x38, 0x00, 0x00, 0xe0, 0x00, 0x00, 0x00, 0x00,
   0x00, 0x00, 0xf0, 0xff, 0x01, 0xc0, 0xff, 0x07, 0x00, 0x00, 0x00, 0x00,
   0x00, 0x80, 0x03, 0x00, 0x00, 0x0e, 0x3c, 0x00, 0x00, 0xe0, 0x01, 0x00,
   0x00, 0x00, 0x00, 0x00, 0xf0, 0xff, 0x01, 0xc0, 0xff, 0x07, 0x00, 0x00,
   0x00, 0x00, 0x00, 0xc0, 0x03, 0x00, 0x00, 0x1e, 0x1c, 0x00, 0x00, 0xc0,
   0x01, 0x00, 0x00, 0x00, 0x00, 0x00, 0xe0, 0xff, 0x00, 0x80, 0xff, 0x03,
   0x00, 0x00, 0x00, 0x00, 0x00, 0xc0, 0x01, 0x00, 0x00, 0x1c, 0x1c, 0x00,
   0x00, 0xc0, 0x01, 0x00, 0x00, 0x00, 0x40, 0x00, 0xc0, 0x7f, 0x00, 0x00,
   0xff, 0x01, 0x00, 0x01, 0x00, 0x00, 0x00, 0xc0, 0x01, 0x00, 0x00, 0x1c,
   0x1e, 0x00, 0x00, 0xc0, 0x03, 0x00, 0x00, 0x00, 0xf8, 0x03, 0xc0, 0x7f,
   0x00, 0x00, 0xff, 0x01, 0xe0, 0x0f, 0x00, 0x00, 0x00, 0xe0, 0x01, 0x00,
   0x00, 0x3c, 0x1e, 0x00, 0x00, 0xc0, 0x03, 0x00, 0x00, 0x00, 0xfc, 0x07,
   0xc0, 0x7f, 0x00, 0x00, 0xff, 0x01, 0xf0, 0x1f, 0x00, 0x00, 0x00, 0xe0,
   0x01, 0x00, 0x00, 0x3c, 0x1e, 0x00, 0x00, 0xc0, 0x03, 0x00, 0x00, 0x00,
   0xfe, 0x0f, 0xc0, 0x7f, 0x00, 0x00, 0xff, 0x01, 0xf8, 0x3f, 0x00, 0x00,
   0x00, 0xe0, 0x01, 0x00, 0x00, 0x3c, 0x0e, 0x00, 0x00, 0x80, 0x03, 0x00,
   0x00, 0x00, 0xff, 0x1f, 0xc0, 0x7f, 0x00, 0x00, 0xff, 0x01, 0xfc, 0x7f,
   0x00, 0x00, 0x00, 0xe0, 0x00, 0x00, 0x00, 0x38, 0x1e, 0x00, 0x00, 0xc0,
   0x03, 0x00, 0x00, 0x00, 0xff, 0x1f, 0xc0, 0x7f, 0x00, 0x00, 0xff, 0x01,
   0xfc, 0x7f, 0x00, 0x00, 0x00, 0xe0, 0x01, 0x00, 0x00, 0x3c, 0x1e, 0x00,
   0x00, 0xc0, 0x03, 0x00, 0x00, 0x00, 0xff, 0x1f, 0xc0, 0x7f, 0x00, 0x00,
   0xff, 0x01, 0xfc, 0x7f, 0x00, 0x00, 0x00, 0xe0, 0x01, 0x00, 0x00, 0x3c,
   0x1e, 0x00, 0x00, 0xc0, 0x03, 0x00, 0x00, 0x80, 0xff, 0x3f, 0xc0, 0x7f,
   0x00, 0x00, 0xff, 0x01, 0xfe, 0xff, 0x00, 0x00, 0x00, 0xe0, 0x01, 0x00,
   0x00, 0x3c, 0x1c, 0x00, 0x00, 0xc0, 0x01, 0x00, 0x00, 0x00, 0xff, 0x1f,
   0xc0, 0x7f, 0x00, 0x00, 0xff, 0x01, 0xfc, 0x7f, 0x00, 0x00, 0x00, 0xc0,
   0x01, 0x00, 0x00, 0x1c, 0x1c, 0x00, 0x00, 0xc0, 0x01, 0x00, 0x00, 0x00,
   0xff, 0x1f, 0xc0, 0x7f, 0x00, 0x00, 0xff, 0x01, 0xfc, 0x7f, 0x00, 0x00,
   0x00, 0xc0, 0x01, 0x00, 0x00, 0x1c, 0x3c, 0x00, 0x00, 0xe0, 0x01, 0x00,
   0x00, 0x00, 0xff, 0x1f, 0xc0, 0x7f, 0x00, 0x00, 0xff, 0x01, 0xfc, 0x7f,
   0x00, 0x00, 0x00, 0xc0, 0x03, 0x00, 0x00, 0x1e, 0x38, 0x00, 0x00, 0xe0,
   0x00, 0x00, 0x00, 0x00, 0xfe, 0x0f, 0xc0, 0x7f, 0x00, 0x00, 0xff, 0x01,
   0xf8, 0x3f, 0x00, 0x00, 0x00, 0x80, 0x03, 0x00, 0x00, 0x0e, 0x78, 0x00,
   0x00, 0xf0, 0x00, 0x00, 0x04, 0x00, 0xfc, 0x07, 0xc0, 0x7f, 0x00, 0x00,
   0xff, 0x01, 0xf0, 0x1f, 0x00, 0x10, 0x00, 0x80, 0x07, 0x00, 0x00, 0x0f,
   0xf0, 0x00, 0x00, 0x78, 0x00, 0x80, 0x3f, 0x00, 0xfc, 0x07, 0xc0, 0x7f,
   0x00, 0x00, 0xff, 0x01, 0xf0, 0x1f, 0x00, 0xfe, 0x00, 0x00, 0x0f, 0x00,
   0x80, 0x07, 0xe0, 0x01, 0x00, 0x3c, 0x00, 0xc0, 0x7f, 0x00, 0xfc, 0x07,
   0xc0, 0x7f, 0x00, 0x00, 0xff, 0x01, 0xf0, 0x1f, 0x00, 0xff, 0x01, 0x00,
   0x1e, 0x00, 0xc0, 0x03, 0xe0, 0x03, 0x00, 0x3e, 0x00, 0xe0, 0xff, 0x00,
   0xfc, 0x07, 0xc0, 0x7f, 0x00, 0x00, 0xff, 0x01, 0xf0, 0x1f, 0x80, 0xff,
   0x03, 0x00, 0x3e, 0x00, 0xe0, 0x03, 0xc0, 0x0f, 0x80, 0x1f, 0x00, 0xf0,
   0xff, 0x01, 0xfc, 0x07, 0xc0, 0x7f, 0x00, 0x00, 0xff, 0x01, 0xf0, 0x1f,
   0xc0, 0xff, 0x07, 0x00, 0xfc, 0x00, 0xf8, 0x01, 0x00, 0xff, 0xfd, 0x07,
   0x00, 0xf0, 0xff, 0x01, 0xfc, 0x07, 0xc0, 0x7f, 0x00, 0x00, 0xff, 0x01,
   0xf0, 0x1f, 0xc0, 0xff, 0x07, 0x00, 0xf0, 0xdf, 0x7f, 0x00, 0xff, 0xff,
   0xff, 0xff, 0x07, 0xf0, 0xff, 0x01, 0xfc, 0x07, 0xc0, 0x7f, 0x00, 0x00,
   0xff, 0x01, 0xf0, 0x1f, 0xc0, 0xff, 0x07, 0xf0, 0xff, 0xff, 0xff, 0x7f,
   0xff, 0xff, 0xff, 0xff, 0x07, 0xf8, 0xff, 0x03, 0xfc, 0x07, 0xc0, 0x7f,
   0x00, 0x00, 0xff, 0x01, 0xf0, 0x1f, 0xe0, 0xff, 0x0f, 0xf0, 0xff, 0xff,
   0xff, 0x7f, 0xff, 0xff, 0xff, 0xff, 0x07, 0xf0, 0xff, 0x01, 0xfc, 0x07,
   0xc0, 0x7f, 0x00, 0x00, 0xff, 0x01, 0xf0, 0x1f, 0xc0, 0xff, 0x07, 0xf0,
   0xff, 0xff, 0xff, 0x7f, 0xff, 0xff, 0xff, 0xff, 0x07, 0xf0, 0xff, 0x01,
   0xfc, 0x07, 0xc0, 0x7f, 0x00, 0x00, 0xff, 0x01, 0xf0, 0x1f, 0xc0, 0xff,
   0x07, 0xf0, 0xff, 0xff, 0xff, 0x7f, 0x1f, 0x00, 0x00, 0xc0, 0x07, 0xf0,
   0xff, 0x01, 0xfc, 0x07, 0xc0, 0x7f, 0x00, 0x00, 0xff, 0x01, 0xf0, 0x1f,
   0xc0, 0xff, 0x07, 0xf0, 0x01, 0x00, 0x00, 0x7c, 0x1f, 0x00, 0x00, 0xc0,
   0x07, 0xe0, 0xff, 0x00, 0xfc, 0x07, 0xc0, 0x7f, 0x00, 0x00, 0xff, 0x01,
   0xf0, 0x1f, 0x80, 0xff, 0x03, 0xf0, 0x01, 0x00, 0x00, 0x7c, 0x1f, 0x00,
   0x00, 0xc0, 0x07, 0xc0, 0x7f, 0x00, 0xfc, 0x07, 0xc0, 0x7f, 0x00, 0x00,
   0xff, 0x01, 0xf0, 0x1f, 0x00, 0xff, 0x01, 0xf0, 0x01, 0x00, 0x00, 0x7c,
   0x1f, 0x00, 0x00, 0xc0, 0x07, 0xc0, 0x7f, 0x00, 0xfc, 0x07, 0xc0, 0x7f,
   0x00, 0x00, 0xff, 0x01, 0xf0, 0x1f, 0x00, 0xff, 0x01, 0xf0, 0x01, 0x00,
   0x00, 0x7c, 0x1f, 0x00, 0x00, 0xc0, 0x07, 0xc0, 0x7f, 0x00, 0xfc, 0x07,
   0xc0, 0x7f, 0x00, 0x00, 0xff, 0x01, 0xf0, 0x1f, 0x00, 0xff, 0x01, 0xf0,
   0x01, 0x00, 0x00, 0x7c, 0x1f, 0x00, 0x00, 0xc0, 0x07, 0xc0, 0x7f, 0x00,
   0xfc, 0x07, 0xc0, 0x7f, 0x00, 0x00, 0xff, 0x01, 0xf0, 0x1f, 0x00, 0xff,
   0x01, 0xf0, 0x01, 0x00, 0x00, 0x7c, 0x1f, 0x00, 0x00, 0xc0, 0x07, 0xc0,
   0x7f, 0x00, 0xfc, 0x07, 0xc0, 0x7f, 0x00, 0x00, 0xff, 0x01, 0xf0, 0x1f,
   0x00, 0xff, 0x01, 0xf0, 0x01, 0x00, 0x00, 0x7c, 0x1f, 0x00, 0x00, 0xc0,
   0x07, 0xc0, 0x7f, 0x00, 0xfc, 0x07, 0xc0, 0x7f, 0x00, 0x00, 0xff, 0x01,
   0xf0, 0x1f, 0x00, 0xff, 0x01, 0xf0, 0x01, 0x00, 0x00, 0x7c, 0x1f, 0x00,
   0x00, 0xc0, 0x07, 0xc0, 0x7f, 0x00, 0xfc, 0x07, 0xc0, 0x7f, 0x00, 0x00,
   0xff, 0x01, 0xf0, 0x1f, 0x00, 0xff, 0x01, 0xf0, 0x01, 0x00, 0x00, 0x7c,
   0x1f, 0x00, 0x00, 0xc0, 0x07, 0xc0, 0x7f, 0x00, 0xfc, 0x07, 0xc0, 0x7f,
   0x00, 0x00, 0xff, 0x01, 0xf0, 0x1f, 0x00, 0xff, 0x01, 0xf0, 0x01, 0x00,
   0x00, 0x7c, 0x1f, 0x7c, 0xf0, 0xc1, 0x07, 0xc0, 0x7f, 0x00, 0xfc, 0x07,
   0xc0, 0x7f, 0x00, 0x00, 0xff, 0x01, 0xf0, 0x1f, 0x00, 0xff, 0x01, 0xf0,
   0xc1, 0x07, 0x1f, 0x7c, 0x1f, 0x7c, 0xf0, 0xc1, 0x07, 0xc0, 0x7f, 0x00,
   0xfc, 0x07, 0xc0, 0x7f, 0x00, 0x00, 0xff, 0x01, 0xf0, 0x1f, 0x00, 0xff,
   0x01, 0xf0, 0xc1, 0x07, 0x1f, 0x7c, 0x1f, 0x7c, 0xf0, 0xc1, 0x07, 0xc0,
   0x7f, 0x00, 0xfc, 0x07, 0xc0, 0x7f, 0x00, 0x00, 0xff, 0x01, 0xf0, 0x1f,
   0x00, 0xff, 0x01, 0xf0, 0xc1, 0x07, 0x1f, 0x7c, 0x1f, 0x7c, 0xf0, 0xc1,
   0x07, 0xc0, 0x7f, 0x00, 0xfc, 0x07, 0xc0, 0x7f, 0x00, 0x00, 0xff, 0x01,
   0xf0, 0x1f, 0x00, 0xff, 0x01, 0xf0, 0xc1, 0x07, 0x1f, 0x7c, 0x1f, 0x7c,
   0xf0, 0xc1, 0x07, 0xc0, 0x7f, 0x00, 0xfc, 0x07, 0xc0, 0x7f, 0x00, 0x00,
   0xff, 0x01, 0xf0, 0x1f, 0x00, 0xff, 0x01, 0xf0, 0xc1, 0x07, 0x1f, 0x7c,
   0x1f, 0x7c, 0xf0, 0xc1, 0xff, 0xff, 0xff, 0xff, 0xff, 0xff, 0xff, 0xff,
   0x1f, 0xfc, 0xff, 0xff, 0xff, 0xff, 0xff, 0xff, 0xff, 0xff, 0xc1, 0x07,
   0x1f, 0x7c, 0x1f, 0x7c, 0xf0, 0xc1, 0xff, 0xff, 0xff, 0xff, 0xff, 0xff,
   0xff, 0xff, 0x1f, 0xfc, 0xff, 0xff, 0xff, 0xff, 0xff, 0xff, 0xff, 0xff,
   0xc1, 0x07, 0x1f, 0x7c, 0x1f, 0x7c, 0xf0, 0xc1, 0xff, 0xff, 0xff, 0xff,
   0xff, 0xff, 0xff, 0xff, 0x1f, 0xfc, 0xff, 0xff, 0xff, 0xff, 0xff, 0xff,
   0xff, 0xff, 0xc1, 0x07, 0x1f, 0x7c, 0x1f, 0x7c, 0xf0, 0xc1, 0xff, 0xff,
   0xff, 0xff, 0xff, 0xff, 0xff, 0xff, 0x1f, 0xfc, 0xff, 0xff, 0xff, 0xff,
   0xff, 0xff, 0xff, 0xff, 0xc1, 0x07, 0x1f, 0x7c, 0x1f, 0x7c, 0xf0, 0xc1,
   0xff, 0xff, 0xff, 0xff, 0xff, 0xff, 0xff, 0xff, 0x1f, 0xfc, 0xff, 0xff,
   0xff, 0xff, 0xff, 0xff, 0xff, 0xff, 0xc1, 0x07, 0x1f, 0x7c, 0x1f, 0x7c,
   0xf0, 0xc1, 0xff, 0xff, 0xff, 0xff, 0xff, 0xff, 0xff, 0xff, 0x1f, 0xfc,
   0xff, 0xff, 0xff, 0xff, 0xff, 0xff, 0xff, 0xff, 0xc1, 0x07, 0x1f, 0x7c,
   0x1f, 0x7c, 0xf0, 0xc1, 0xff, 0xff, 0xff, 0xff, 0xff, 0xff, 0xff, 0xff,
   0x1f, 0xfc, 0xff, 0xff, 0xff, 0xff, 0xff, 0xff, 0xff, 0xff, 0xc1, 0x07,
   0x1f, 0x7c, 0x1f, 0x7c, 0xf0, 0xc1, 0xff, 0xff, 0xff, 0xff, 0xff, 0xff,
   0xff, 0xff, 0x1f, 0xfc, 0xff, 0xff, 0xff, 0xff, 0xff, 0xff, 0xff, 0xff,
   0xc1, 0x07, 0x1f, 0x7c, 0x1f, 0x7c, 0xf0, 0xc1, 0xff, 0xff, 0xff, 0xff,
   0xff, 0xff, 0xff, 0xff, 0x1f, 0xfc, 0xff, 0xff, 0xff, 0xff, 0xff, 0xff,
   0xff, 0xff, 0xc1, 0x07, 0x1f, 0x7c, 0x1f, 0x7c, 0xf0, 0xc1, 0xff, 0xff,
   0xff, 0xff, 0xff, 0xff, 0xff, 0xff, 0x1f, 0xfc, 0xff, 0xff, 0xff, 0xff,
   0xff, 0xff, 0xff, 0xff, 0xc1, 0x07, 0x1f, 0x7c, 0x1f, 0x7c, 0xf0, 0xc1,
   0x07, 0xc0, 0x7f, 0x00, 0xfc, 0x07, 0xc0, 0x7f, 0x00, 0x00, 0xff, 0x01,
   0xf0, 0x1f, 0x00, 0xff, 0x01, 0xf0, 0xc1, 0x07, 0x1f, 0x7c, 0x1f, 0x7c,
   0xf0, 0xc1, 0x07, 0xc0, 0x7f, 0x00, 0xfc, 0x07, 0xc0, 0x7f, 0x00, 0x00,
   0xff, 0x01, 0xf0, 0x1f, 0x00, 0xff, 0x01, 0xf0, 0xc1, 0x07, 0x1f, 0x7c,
   0x1f, 0x7c, 0xf0, 0xc1, 0x07, 0xc0, 0x7f, 0x00, 0xfc, 0x07, 0xc0, 0x7f,
   0x00, 0x00, 0xff, 0x01, 0xf0, 0x1f, 0x00, 0xff, 0x01, 0xf0, 0xc1, 0x07,
   0x1f, 0x7c, 0x1f, 0x7c, 0xf0, 0xc1, 0x07, 0xc0, 0x7f, 0x00, 0xfc, 0x07,
   0xc0, 0x7f, 0x00, 0x00, 0xff, 0x01, 0xf0, 0x1f, 0x00, 0xff, 0x01, 0xf0,
   0xc1, 0x07, 0x1f, 0x7c, 0x1f, 0x7c, 0xf0, 0xc1, 0x07, 0xc0, 0x7f, 0x00,
   0xfc, 0x07, 0xc0, 0x7f, 0x00, 0x00, 0xff, 0x01, 0xf0, 0x1f, 0x00, 0xff,
   0x01, 0xf0, 0xc1, 0x07, 0x1f, 0x7c, 0x1f, 0x7c, 0xf0, 0xc1, 0x07, 0xc0,
   0x7f, 0x00, 0xfc, 0x07, 0xc0, 0x7f, 0x00, 0x00, 0xff, 0x01, 0xf0, 0x1f,
   0x00, 0xff, 0x01, 0xf0, 0xc1, 0x07, 0x1f, 0x7c, 0x1f, 0x7c, 0xf0, 0xc1,
   0x07, 0xc0, 0x7f, 0x00, 0xfc, 0x07, 0xc0, 0x7f, 0x00, 0x00, 0xff, 0x01,
   0xf0, 0x1f, 0x00, 0xff, 0x01, 0xf0, 0xc1, 0x07, 0x1f, 0x7c, 0x1f, 0x7c,
   0xf0, 0xc1, 0x07, 0xc0, 0x7f, 0x00, 0xfc, 0x07, 0xc0, 0x7f, 0x00, 0x00,
   0xff, 0x01, 0xf0, 0x1f, 0x00, 0xff, 0x01, 0xf0, 0xc1, 0x07, 0x1f, 0x7c,
   0x1f, 0x7c, 0xf0, 0xc1, 0x07, 0xc0, 0x7f, 0x00, 0xfc, 0x07, 0xc0, 0x7f,
   0x00, 0x00, 0xff, 0x01, 0xf0, 0x1f, 0x00, 0xff, 0x01, 0xf0, 0xc1, 0x07,
   0x1f, 0x7c, 0x1f, 0x7c, 0xf0, 0xc1, 0x07, 0xc0, 0x7f, 0x00, 0xfc, 0x07,
   0xc0, 0x7f, 0x00, 0x00, 0xff, 0x01, 0xf0, 0x1f, 0x00, 0xff, 0x01, 0xf0,
   0xc1, 0x07, 0x1f, 0x7c, 0x1f, 0x7c, 0xf0, 0xc1, 0x07, 0xc0, 0x7f, 0x00,
   0xfc, 0x07, 0xc0, 0x7f, 0x00, 0x00, 0xff, 0x01, 0xf0, 0x1f, 0x00, 0xff,
   0x01, 0xf0, 0xc1, 0x07, 0x1f, 0x7c, 0x1f, 0x7c, 0xf0, 0xc1, 0x07, 0xc0,
   0x7f, 0x00, 0xfc, 0x07, 0xc0, 0x7f, 0x00, 0x00, 0xff, 0x01, 0xf0, 0x1f,
   0x00, 0xff, 0x01, 0xf0, 0xc1, 0x07, 0x1f, 0x7c, 0x1f, 0x7c, 0xf0, 0xc1,
   0x07, 0xc0, 0x7f, 0x00, 0xfc, 0x07, 0xc0, 0x7f, 0x00, 0x00, 0xff, 0x01,
   0xf0, 0x1f, 0x00, 0xff, 0x01, 0xf0, 0xc1, 0x07, 0x1f, 0x7c, 0x1f, 0x7c,
   0xf0, 0xc1, 0x07, 0xc0, 0x7f, 0x00, 0xfc, 0x07, 0xc0, 0x7f, 0x00, 0x00,
   0xff, 0x01, 0xf0, 0x1f, 0x00, 0xff, 0x01, 0xf0, 0xc1, 0x07, 0x1f, 0x7c,
   0x1f, 0x7c, 0xf0, 0xc1, 0x07, 0xc0, 0x7f, 0x00, 0xfc, 0x07, 0xc0, 0x7f,
   0x00, 0x00, 0xff, 0x01, 0xf0, 0x1f, 0x00, 0xff, 0x01, 0xf0, 0xc1, 0x07,
   0x1f, 0x7c, 0x1f, 0x7c, 0xf0, 0xc1, 0x07, 0xc0, 0x7f, 0x00, 0xfc, 0x07,
   0xc0, 0x7f, 0x00, 0x00, 0xff, 0x01, 0xf0, 0x1f, 0x00, 0xff, 0x01, 0xf0,
   0xc1, 0x07, 0x1f, 0x7c, 0x1f, 0x7c, 0xf0, 0xc1, 0x07, 0xc0, 0x7f, 0x00,
   0xfc, 0x07, 0xc0, 0x7f, 0x00, 0x00, 0xff, 0x01, 0xf0, 0x1f, 0x00, 0xff,
   0x01, 0xf0, 0xc1, 0x07, 0x1f, 0x7c, 0x1f, 0x7c, 0xf0, 0xc1, 0x07, 0xc0,
   0x7f, 0x00, 0xfc, 0x07, 0xc0, 0x7f, 0x00, 0x00, 0xff, 0x01, 0xf0, 0x1f,
   0x00, 0xff, 0x01, 0xf0, 0xc1, 0x07, 0x1f, 0x7c, 0x1f, 0x7c, 0xf0, 0xc1,
   0x07, 0xc0, 0x7f, 0x00, 0xfc, 0x07, 0xc0, 0x7f, 0x00, 0x00, 0xff, 0x01,
   0xf0, 0x1f, 0x00, 0xff, 0x01, 0xf0, 0xc1, 0x07, 0x1f, 0x7c, 0x1f, 0x7c,
   0xf0, 0xc1, 0x07, 0xc0, 0x7f, 0x00, 0xfc, 0x07, 0xc0, 0x7f, 0x00, 0x00,
   0xff, 0x01, 0xf0, 0x1f, 0x00, 0xff, 0x01, 0xf0, 0xc1, 0x07, 0x1f, 0x7c,
   0x1f, 0x7c, 0xf0, 0xc1, 0x07, 0xc0, 0x7f, 0x00, 0xfc, 0x07, 0xc0, 0x7f,
   0x00, 0x00, 0xff, 0x01, 0xf0, 0x1f, 0x00, 0xff, 0x01, 0xf0, 0xc1, 0x07,
   0x1f, 0x7c, 0x1f, 0x7c, 0xf0, 0xc1, 0x07, 0xc0, 0x7f, 0x00, 0xfc, 0x07,
   0xc0, 0x7f, 0x00, 0x00, 0xff, 0x01, 0xf0, 0x1f, 0x00, 0xff, 0x01, 0xf0,
   0xc1, 0x07, 0x1f, 0x7c, 0x1f, 0x7c, 0xf0, 0xc1, 0x07, 0xc0, 0x7f, 0x00,
   0xfc, 0x07, 0xc0, 0x7f, 0x00, 0x00, 0xff, 0x01, 0xf0, 0x1f, 0x00, 0xff,
   0x01, 0xf0, 0xc1, 0x07, 0x1f, 0x7c, 0x1f, 0x7c, 0xf0, 0xc1, 0x07, 0xc0,
   0x7f, 0x00, 0xfc, 0x07, 0xc0, 0x7f, 0x00, 0x00, 0xff, 0x01, 0xf0, 0x1f,
   0x00, 0xff, 0x01, 0xf0, 0xc1, 0x07, 0x1f, 0x7c, 0x1f, 0x7c, 0xf0, 0xc1,
   0x07, 0xc0, 0x7f, 0x00, 0xfc, 0x07, 0xc0, 0x7f, 0x00, 0x00, 0xff, 0x01,
   0xf0, 0x1f, 0x00, 0xff, 0x01, 0xf0, 0xc1, 0x07, 0x1f, 0x7c, 0x1f, 0x7c,
   0xf0, 0xc1, 0x07, 0xc0, 0x7f, 0x00, 0xfc, 0x07, 0xc0, 0x7f, 0x00, 0x00,
   0xff, 0x01, 0xf0, 0x1f, 0x00, 0xff, 0x01, 0xf0, 0xc1, 0x07, 0x1f, 0x7c,
   0x1f, 0x7c, 0xf0, 0xc1, 0x07, 0xc0, 0x7f, 0x00, 0xfc, 0x07, 0xc0, 0x7f,
   0x00, 0x00, 0xff, 0x01, 0xf0, 0x1f, 0x00, 0xff, 0x01, 0xf0, 0xc1, 0x07,
   0x1f, 0x7c, 0x1f, 0x7c, 0xf0, 0xc1, 0x07, 0xc0, 0x7f, 0x00, 0xfc, 0x07,
   0xc0, 0x7f, 0x00, 0x00, 0xff, 0x01, 0xf0, 0x1f, 0x00, 0xff, 0x01, 0xf0,
   0xc1, 0x07, 0x1f, 0x7c, 0x1f, 0x7c, 0xf0, 0xc1, 0x07, 0xc0, 0x7f, 0x00,
   0xfc, 0x07, 0xc0, 0x7f, 0x00, 0x00, 0xff, 0x01, 0xf0, 0x1f, 0x00, 0xff,
   0x01, 0xf0, 0xc1, 0x07, 0x1f, 0x7c, 0x1f, 0x7c, 0xf0, 0xc1, 0x07, 0xc0,
   0x7f, 0x00, 0xfc, 0x07, 0xc0, 0x7f, 0x00, 0x00, 0xff, 0x01, 0xf0, 0x1f,
   0x00, 0xff, 0x01, 0xf0, 0xc1, 0x07, 0x1f, 0x7c, 0x1f, 0x7c, 0xf0, 0xc1,
   0x07, 0xc0, 0x7f, 0x00, 0xfc, 0x07, 0xc0, 0x7f, 0x00, 0x00, 0xff, 0x01,
   0xf0, 0x1f, 0x00, 0xff, 0x01, 0xf0, 0xc1, 0x07, 0x1f, 0x7c, 0x1f, 0x7c,
   0xf0, 0xc1, 0x07, 0xc0, 0x7f, 0x00, 0xfc, 0x07, 0xc0, 0x7f, 0x00, 0x00,
   0xff, 0x01, 0xf0, 0x1f, 0x00, 0xff, 0x01, 0xf0, 0xc1, 0x07, 0x1f, 0x7c,
   0x1f, 0x7c, 0xf0, 0xc1, 0x07, 0xc0, 0x7f, 0x00, 0xfc, 0x07, 0xc0, 0x7f,
   0x00, 0x00, 0xff, 0x01, 0xf0, 0x1f, 0x00, 0xff, 0x01, 0xf0, 0xc1, 0x07,
   0x1f, 0x7c, 0x1f, 0x7c, 0xf0, 0xc1, 0x07, 0xc0, 0x7f, 0x00, 0xfc, 0x07,
   0xc0, 0x7f, 0x00, 0x00, 0xff, 0x01, 0xf0, 0x1f, 0x00, 0xff, 0x01, 0xf0,
   0xc1, 0x07, 0x1f, 0x7c, 0x1f, 0x7c, 0xf0, 0xc1, 0x07, 0xc0, 0x7f, 0x00,
   0xfc, 0x07, 0xc0, 0x7f, 0x00, 0x00, 0xff, 0x01, 0xf0, 0x1f, 0x00, 0xff,
   0x01, 0xf0, 0xc1, 0x07, 0x1f, 0x7c, 0x1f, 0x7c, 0xf0, 0xc1, 0x07, 0xc0,
   0x7f, 0x00, 0xfc, 0x07, 0xc0, 0x7f, 0x00, 0x00, 0xff, 0x01, 0xf0, 0x1f,
   0x00, 0xff, 0x01, 0xf0, 0xc1, 0x07, 0x1f, 0x7c, 0x1f, 0x7c, 0xf0, 0xc1,
   0x07, 0xc0, 0x7f, 0x00, 0xfc, 0x07, 0xc0, 0x7f, 0x00, 0x00, 0xff, 0x01,
   0xf0, 0x1f, 0x00, 0xff, 0x01, 0xf0, 0xc1, 0x07, 0x1f, 0x7c, 0x1f, 0x7c,
   0xf0, 0xc1, 0x07, 0xc0, 0x7f, 0x00, 0xfc, 0x07, 0xc0, 0x7f, 0x00, 0x00,
   0xff, 0x01, 0xf0, 0x1f, 0x00, 0xff, 0x01, 0xf0, 0xc1, 0x07, 0x1f, 0x7c,
   0x1f, 0x7c, 0xf0, 0xc1, 0x07, 0xc0, 0x7f, 0x00, 0xfc, 0x07, 0xc0, 0x7f,
   0x00, 0x00, 0xff, 0x01, 0xf0, 0x1f, 0x00, 0xff, 0x01, 0xf0, 0xc1, 0x07,
   0x1f, 0x7c, 0x1f, 0x7c, 0xf0, 0xc1, 0x07, 0xc0, 0x7f, 0x00, 0xfc, 0x07,
   0xc0, 0x7f, 0x00, 0x00, 0xff, 0x01, 0xf0, 0x1f, 0x00, 0xff, 0x01, 0xf0,
   0xc1, 0x07, 0x1f, 0x7c, 0x1f, 0x7c, 0xf0, 0xc1, 0x07, 0xc0, 0x7f, 0x00,
   0xfc, 0x07, 0xc0, 0x7f, 0x00, 0x00, 0xff, 0x01, 0xf0, 0x1f, 0x00, 0xff,
   0x01, 0xf0, 0xc1, 0x07, 0x1f, 0x7c, 0x1f, 0x7c, 0xf0, 0xc1, 0x07, 0xc0,
   0x7f, 0x00, 0xfc, 0x07, 0xc0, 0x7f, 0x00, 0x00, 0xff, 0x01, 0xf0, 0x1f,
   0x00, 0xff, 0x01, 0xf0, 0xc1, 0x07, 0x1f, 0x7c, 0x1f, 0x7c, 0xf0, 0xc1,
   0x07, 0xc0, 0x7f, 0x00, 0xfc, 0x07, 0xc0, 0x7f, 0x00, 0x00, 0xff, 0x01,
   0xf0, 0x1f, 0x00, 0xff, 0x01, 0xf0, 0xc1, 0x07, 0x1f, 0x7c, 0x1f, 0x7c,
   0xf0, 0xc1, 0x07, 0xc0, 0x7f, 0x00, 0xfc, 0x07, 0xc0, 0x7f, 0x00, 0x00,
   0xff, 0x01, 0xf0, 0x1f, 0x00, 0xff, 0x01, 0xf0, 0xc1, 0x07, 0x1f, 0x7c,
   0x1f, 0x7c, 0xf0, 0xc1, 0x07, 0xc0, 0x7f, 0x00, 0xfc, 0x07, 0xc0, 0x7f,
   0x00, 0x00, 0xff, 0x01, 0xf0, 0x1f, 0x00, 0xff, 0x01, 0xf0, 0xc1, 0x07,
   0x1f, 0x7c, 0x1f, 0x7c, 0xf0, 0xc1, 0x07, 0xc0, 0x7f, 0x00, 0xfc, 0x07,
   0xc0, 0x7f, 0x00, 0x00, 0xff, 0x01, 0xf0, 0x1f, 0x00, 0xff, 0x01, 0xf0,
   0xc1, 0x07, 0x1f, 0x7c, 0x1f, 0x7c, 0xf0, 0xc1, 0x07, 0xc0, 0x7f, 0x00,
   0xfc, 0x07, 0xc0, 0x7f, 0x00, 0x00, 0xff, 0x01, 0xf0, 0x1f, 0x00, 0xff,
   0x01, 0xf0, 0xc1, 0x07, 0x1f, 0x7c, 0x1f, 0x7c, 0xf0, 0xc1, 0x07, 0xc0,
   0x7f, 0x00, 0xfc, 0x07, 0xc0, 0x7f, 0x00, 0x00, 0xff, 0x01, 0xf0, 0x1f,
   0x00, 0xff, 0x01, 0xf0, 0xc1, 0x07, 0x1f, 0x7c, 0x1f, 0x7c, 0xf0, 0xc1,
   0x07, 0xc0, 0x7f, 0x00, 0xfc, 0x07, 0xc0, 0x7f, 0x00, 0x00, 0xff, 0x01,
   0xf0, 0x1f, 0x00, 0xff, 0x01, 0xf0, 0xc1, 0x07, 0x1f, 0x7c, 0x1f, 0x7c,
   0xf0, 0xc1, 0x07, 0xc0, 0x7f, 0x00, 0xfc, 0x07, 0xc0, 0x7f, 0x00, 0x00,
   0xff, 0x01, 0xf0, 0x1f, 0x00, 0xff, 0x01, 0xf0, 0xc1, 0x07, 0x1f, 0x7c,
   0x1f, 0x7c, 0xf0, 0xc1, 0x07, 0xc0, 0x7f, 0x00, 0xfc, 0x07, 0xc0, 0x7f,
   0x00, 0x00, 0xff, 0x01, 0xf0, 0x1f, 0x00, 0xff, 0x01, 0xf0, 0xc1, 0x07,
   0x1f, 0x7c, 0x1f, 0x7c, 0xf0, 0xc1, 0x07, 0xc0, 0x7f, 0x00, 0xfc, 0x07,
   0xc0, 0x7f, 0x00, 0x00, 0xff, 0x01, 0xf0, 0x1f, 0x00, 0xff, 0x01, 0xf0,
   0xc1, 0x07, 0x1f, 0x7c, 0x1f, 0x7c, 0xf0, 0xc1, 0x07, 0xc0, 0x7f, 0x00,
   0xfc, 0x07, 0xc0, 0x7f, 0x00, 0x00, 0xff, 0x01, 0xf0, 0x1f, 0x00, 0xff,
   0x01, 0xf0, 0xc1, 0x07, 0x1f, 0x7c, 0x1f, 0x7c, 0xf0, 0xc1, 0x07, 0xc0,
   0x7f, 0x00, 0xfc, 0x07, 0xc0, 0x7f, 0x00, 0x00, 0xff, 0x01, 0xf0, 0x1f,
   0x00, 0xff, 0x01, 0xf0, 0xc1, 0x07, 0x1f, 0x7c, 0x1f, 0x7c, 0xf0, 0xc1,
   0x07, 0xc0, 0x7f, 0x00, 0xfc, 0x07, 0xc0, 0x7f, 0x00, 0x00, 0xff, 0x01,
   0xf0, 0x1f, 0x00, 0xff, 0x01, 0xf0, 0xc1, 0x07, 0x1f, 0x7c, 0x1f, 0x7c,
   0xf0, 0xc1, 0x07, 0xc0, 0x7f, 0x00, 0xfc, 0x07, 0xc0, 0x7f, 0x00, 0x00,
   0xff, 0x01, 0xf0, 0x1f, 0x00, 0xff, 0x01, 0xf0, 0xc1, 0x07, 0x1f, 0x7c,
   0x1f, 0x7c, 0xf0, 0xc1, 0x07, 0xc0, 0x7f, 0x00, 0xfc, 0x07, 0xc0, 0x7f,
   0x00, 0x00, 0xff, 0x01, 0xf0, 0x1f, 0x00, 0xff, 0x01, 0xf0, 0xc1, 0x07,
   0x1f, 0x7c, 0x1f, 0x7c, 0xf0, 0xc1, 0x07, 0xc0, 0x7f, 0x00, 0xfc, 0x07,
   0xc0, 0x7f, 0x00, 0x00, 0xff, 0x01, 0xf0, 0x1f, 0x00, 0xff, 0x01, 0xf0,
   0xc1, 0x07, 0x1f, 0x7c, 0x1f, 0x7c, 0xf0, 0xc1, 0x07, 0xc0, 0x7f, 0x00,
   0xfc, 0x07, 0xc0, 0x7f, 0x00, 0x00, 0xff, 0x01, 0xf0, 0x1f, 0x00, 0xff,
   0x01, 0xf0, 0xc1, 0x07, 0x1f, 0x7c, 0x1f, 0x7c, 0xf0, 0xc1, 0x07, 0xc0,
   0x7f, 0x00, 0xfc, 0x07, 0xc0, 0x7f, 0x00, 0x00, 0xff, 0x01, 0xf0, 0x1f,
   0x00, 0xff, 0x01, 0xf0, 0xc1, 0x07, 0x1f, 0x7c, 0x1f, 0x7c, 0xf0, 0xc1,
   0x07, 0xc0, 0x7f, 0x00, 0xfc, 0x07, 0xc0, 0x7f, 0x00, 0x00, 0xff, 0x01,
   0xf0, 0x1f, 0x00, 0xff, 0x01, 0xf0, 0xc1, 0x07, 0x1f, 0x7c, 0x1f, 0x7c,
   0xf0, 0xc1, 0x07, 0xc0, 0x7f, 0x00, 0xfc, 0x07, 0xc0, 0x7f, 0x00, 0x00,
   0xff, 0x01, 0xf0, 0x1f, 0x00, 0xff, 0x01, 0xf0, 0xc1, 0x07, 0x1f, 0x7c,
   0x1f, 0x7c, 0xf0, 0xc1, 0x07, 0xc0, 0x7f, 0x00, 0xfc, 0x07, 0xc0, 0x7f,
   0x00, 0x00, 0xff, 0x01, 0xf0, 0x1f, 0x00, 0xff, 0x01, 0xf0, 0xc1, 0x07,
   0x1f, 0x7c, 0x1f, 0x7c, 0xf0, 0xc1, 0x07, 0xc0, 0x7f, 0x00, 0xfc, 0x07,
   0xc0, 0x7f, 0x00, 0x00, 0xff, 0x01, 0xf0, 0x1f, 0x00, 0xff, 0x01, 0xf0,
   0xc1, 0x07, 0x1f, 0x7c, 0x1f, 0x7c, 0xf0, 0xc1, 0x07, 0xc0, 0x7f, 0x00,
   0xfc, 0x07, 0xc0, 0x7f, 0x00, 0x00, 0xff, 0x01, 0xf0, 0x1f, 0x00, 0xff,
   0x01, 0xf0, 0xc1, 0x07, 0x1f, 0x7c, 0x1f, 0x7c, 0xf0, 0xc1, 0x07, 0xc0,
   0x7f, 0x00, 0xfc, 0x07, 0xc0, 0x7f, 0x00, 0x00, 0xff, 0x01, 0xf0, 0x1f,
   0x00, 0xff, 0x01, 0xf0, 0xc1, 0x07, 0x1f, 0x7c, 0x1f, 0x7c, 0xf0, 0xc1,
   0x07, 0xc0, 0x7f, 0x00, 0xfc, 0x07, 0xc0, 0x7f, 0x00, 0x00, 0xff, 0x01,
   0xf0, 0x1f, 0x00, 0xff, 0x01, 0xf0, 0xc1, 0x07, 0x1f, 0x7c, 0x1f, 0x7c,
   0xf0, 0xc1, 0x07, 0xc0, 0x7f, 0x00, 0xfc, 0x07, 0xc0, 0x7f, 0x00, 0x00,
   0xff, 0x01, 0xf0, 0x1f, 0x00, 0xff, 0x01, 0xf0, 0xc1, 0x07, 0x1f, 0x7c,
   0x1f, 0x7c, 0xf0, 0xc1, 0x07, 0xc0, 0x7f, 0x00, 0xfc, 0x07, 0xc0, 0x7f,
   0x00, 0x00, 0xff, 0x01, 0xf0, 0x1f, 0x00, 0xff, 0x01, 0xf0, 0xc1, 0x07,
   0x1f, 0x7c, 0x1f, 0x7c, 0xf0, 0xc1, 0x07, 0xc0, 0x7f, 0x00, 0xfc, 0x07,
   0xc0, 0x7f, 0x00, 0x00, 0xff, 0x01, 0xf0, 0x1f, 0x00, 0xff, 0x01, 0xf0,
   0xc1, 0x07, 0x1f, 0x7c, 0x1f, 0x7c, 0xf0, 0xc1, 0x07, 0xc0, 0x7f, 0x00,
   0xfc, 0x07, 0xc0, 0x7f, 0x00, 0x00, 0xff, 0x01, 0xf0, 0x1f, 0x00, 0xff,
   0x01, 0xf0, 0xc1, 0x07, 0x1f, 0x7c, 0x1f, 0x7c, 0xf0, 0xc1, 0x07, 0xc0,
   0x7f, 0x00, 0xfc, 0x07, 0xc0, 0x7f, 0x00, 0x00, 0xff, 0x01, 0xf0, 0x1f,
   0x00, 0xff, 0x01, 0xf0, 0xc1, 0x07, 0x1f, 0x7c, 0x1f, 0x7c, 0xf0, 0xc1,
   0x07, 0xc0, 0x7f, 0x00, 0xfc, 0x07, 0xc0, 0x7f, 0x00, 0x00, 0xff, 0x01,
   0xf0, 0x1f, 0x00, 0xff, 0x01, 0xf0, 0xc1, 0x07, 0x1f, 0x7c, 0x1f, 0x7c,
   0xf0, 0xc1, 0xff, 0xff, 0xff, 0xff, 0xff, 0xff, 0xff, 0xff, 0x1f, 0xfc,
   0xff, 0xff, 0xff, 0xff, 0xff, 0xff, 0xff, 0xff, 0xc1, 0x07, 0x1f, 0x7c,
   0x1f, 0x7c, 0xf0, 0xc1, 0xff, 0xff, 0xff, 0xff, 0xff, 0xff, 0xff, 0xff,
   0x1f, 0xfc, 0xff, 0xff, 0xff, 0xff, 0xff, 0xff, 0xff, 0xff, 0xc1, 0x07,
   0x1f, 0x7c, 0x1f, 0x7c, 0xf0, 0xc1, 0xff, 0xff, 0xff, 0xff, 0xff, 0xff,
   0xff, 0xff, 0x1f, 0xfc, 0xff, 0xff, 0xff, 0xff, 0xff, 0xff, 0xff, 0xff,
   0xc1, 0x07, 0x1f, 0x7c, 0x1f, 0x7c, 0xf0, 0xc1, 0xff, 0xff, 0xff, 0xff,
   0xff, 0xff, 0xff, 0xff, 0x1f, 0xfc, 0xff, 0xff, 0xff, 0xff, 0xff, 0xff,
   0xff, 0xff, 0xc1, 0x07, 0x1f, 0x7c, 0x1f, 0x7c, 0xf0, 0xc1, 0xff, 0xff,
   0xff, 0xff, 0xff, 0xff, 0xff, 0xff, 0x1f, 0xfc, 0xff, 0xff, 0xff, 0xff,
   0xff, 0xff, 0xff, 0xff, 0xc1, 0x07, 0x1f, 0x7c, 0x1f, 0x7c, 0xf0, 0xc1,
   0x07, 0xc0, 0x7f, 0x00, 0xfc, 0x07, 0xc0, 0x7f, 0x00, 0x00, 0xff, 0x01,
   0xf0, 0x1f, 0x00, 0xff, 0x01, 0xf0, 0xc1, 0x07, 0x1f, 0x7c, 0x1f, 0x7c,
   0xf0, 0xc1, 0x07, 0xc0, 0x7f, 0x00, 0xfc, 0x07, 0xc0, 0x7f, 0x00, 0x00,
   0xff, 0x01, 0xf0, 0x1f, 0x00, 0xff, 0x01, 0xf0, 0xc1, 0x07, 0x1f, 0x7c,
   0x1f, 0x7c, 0xf0, 0xc1, 0x07, 0xc0, 0x7f, 0x00, 0xfc, 0x07, 0xc0, 0x7f,
   0x00, 0x00, 0xff, 0x01, 0xf0, 0x1f, 0x00, 0xff, 0x01, 0xf0, 0xc1, 0x07,
   0x1f, 0x7c, 0x1f, 0x7c, 0xf0, 0xc1, 0x07, 0xc0, 0x7f, 0x00, 0xfc, 0x07,
   0xc0, 0x7f, 0x00, 0x00, 0xff, 0x01, 0xf0, 0x1f, 0x00, 0xff, 0x01, 0xf0,
   0xc1, 0x07, 0x1f, 0x7c, 0x1f, 0x7c, 0xf0, 0xc1, 0x07, 0xc0, 0x7f, 0x00,
   0xfc, 0x07, 0xc0, 0x7f, 0x00, 0x00, 0xff, 0x01, 0xf0, 0x1f, 0x00, 0xff,
   0x01, 0xf0, 0xc1, 0x07, 0x1f, 0x7c, 0x1f, 0x7c, 0xf0, 0xc1, 0x07, 0xc0,
   0x7f, 0x00, 0xfc, 0x07, 0xc0, 0x7f, 0x00, 0x00, 0xff, 0x01, 0xf0, 0x1f,
   0x00, 0xff, 0x01, 0xf0, 0xc1, 0x07, 0x1f, 0x7c, 0x1f, 0x7c, 0xf0, 0xc1,
   0x07, 0xc0, 0x7f, 0x00, 0xfc, 0x07, 0xc0, 0x7f, 0x00, 0x00, 0xff, 0x01,
   0xf0, 0x1f, 0x00, 0xff, 0x01, 0xf0, 0xc1, 0x07, 0x1f, 0x7c, 0x1f, 0x7c,
   0xf0, 0xc1, 0x07, 0xc0, 0x7f, 0x00, 0xfc, 0x07, 0xc0, 0x7f, 0x00, 0x00,
   0xff, 0x01, 0xf0, 0x1f, 0x00, 0xff, 0x01, 0xf0, 0xc1, 0x07, 0x1f, 0x7c,
   0x1f, 0x7c, 0xf0, 0xc1, 0x07, 0xc0, 0x7f, 0x00, 0xfc, 0x07, 0xc0, 0x7f,
   0x00, 0x00, 0xff, 0x01, 0xf0, 0x1f, 0x00, 0xff, 0x01, 0xf0, 0xc1, 0x07,
   0x1f, 0x7c, 0x1f, 0x7c, 0xf0, 0xc1, 0x07, 0xc0, 0x7f, 0x00, 0xfc, 0x07,
   0xc0, 0x7f, 0x00, 0x00, 0xff, 0x01, 0xf0, 0x1f, 0x00, 0xff, 0x01, 0xf0,
   0xc1, 0x07, 0x1f, 0x7c, 0x1f, 0x7c, 0xf0, 0xc1, 0x07, 0xc0, 0x7f, 0x00,
   0xfc, 0x07, 0xc0, 0x7f, 0x00, 0x00, 0xff, 0x01, 0xf0, 0x1f, 0x00, 0xff,
   0x01, 0xf0, 0xc1, 0x07, 0x1f, 0x7c, 0x1f, 0x7c, 0xf0, 0xc1, 0x07, 0xc0,
   0x7f, 0x00, 0xfc, 0x07, 0xc0, 0x7f, 0x00, 0x00, 0xff, 0x01, 0xf0, 0x1f,
   0x00, 0xff, 0x01, 0xf0, 0xc1, 0x07, 0x1f, 0x7c, 0x1f, 0x7c, 0xf0, 0xc1,
   0x07, 0xc0, 0x7f, 0x00, 0xfc, 0x07, 0xc0, 0x7f, 0x00, 0x00, 0xff, 0x01,
   0xf0, 0x1f, 0x00, 0xff, 0x01, 0xf0, 0xc1, 0x07, 0x1f, 0x7c, 0x1f, 0x7c,
   0xf0, 0xc1, 0x07, 0xc0, 0x7f, 0x00, 0xfc, 0x07, 0xc0, 0x7f, 0x00, 0x00,
   0xff, 0x01, 0xf0, 0x1f, 0x00, 0xff, 0x01, 0xf0, 0xc1, 0x07, 0x1f, 0x7c,
   0x1f, 0x7c, 0xf0, 0xc1, 0x07, 0xc0, 0x7f, 0x00, 0xfc, 0x07, 0xc0, 0x7f,
   0x00, 0x00, 0xff, 0x01, 0xf0, 0x1f, 0x00, 0xff, 0x01, 0xf0, 0x01, 0x00,
   0x00, 0x7c, 0x1f, 0x00, 0x00, 0xc0, 0x07, 0xc0, 0x7f, 0x00, 0xfc, 0x07,
   0xc0, 0x7f, 0x00, 0x00, 0xff, 0x01, 0xf0, 0x1f, 0x00, 0xff, 0x01, 0xf0,
   0x01, 0x00, 0x00, 0x7c, 0x1f, 0x00, 0x00, 0xc0, 0x07, 0xc0, 0x7f, 0x00,
   0xfc, 0x07, 0xc0, 0x7f, 0x00, 0x00, 0xff, 0x01, 0xf0, 0x1f, 0x00, 0xff,
   0x01, 0xf0, 0x01, 0x00, 0x00, 0x7c, 0x1f, 0x00, 0x00, 0xc0, 0x07, 0xc0,
   0x7f, 0x00, 0xfc, 0x07, 0xc0, 0x7f, 0x00, 0x00, 0xff, 0x01, 0xf0, 0x1f,
   0x00, 0xff, 0x01, 0xf0, 0x01, 0x00, 0x00, 0x7c, 0x1f, 0x00, 0x00, 0xc0,
   0x07, 0xc0, 0x7f, 0x00, 0xfc, 0x07, 0xc0, 0x7f, 0x00, 0x00, 0xff, 0x01,
   0xf0, 0x1f, 0x00, 0xff, 0x01, 0xf0, 0x01, 0x00, 0x00, 0x7c, 0x1f, 0x00,
   0x00, 0xc0, 0x07, 0xc0, 0x7f, 0x00, 0xfc, 0x07, 0xc0, 0x7f, 0x00, 0x00,
   0xff, 0x01, 0xf0, 0x1f, 0x00, 0xff, 0x01, 0xf0, 0x01, 0x00, 0x00, 0x7c,
   0x1f, 0x00, 0x00, 0xc0, 0x07, 0xc0, 0x7f, 0x00, 0xfc, 0x07, 0xc0, 0x7f,
   0x00, 0x00, 0xff, 0x01, 0xf0, 0x1f, 0x00, 0xff, 0x01, 0xf0, 0x01, 0x00,
   0x00, 0x7c, 0x1f, 0x00, 0x00, 0xc0, 0x07, 0xc0, 0x7f, 0x00, 0xfc, 0x07,
   0xc0, 0x7f, 0x00, 0x00, 0xff, 0x01, 0xf0, 0x1f, 0x00, 0xff, 0x01, 0xf0,
   0x01, 0x00, 0x00, 0x7c, 0x1f, 0x00, 0x00, 0xc0, 0x07, 0xc0, 0x7f, 0x00,
   0xfc, 0x07, 0xc0, 0x7f, 0x00, 0x00, 0xff, 0x01, 0xf0, 0x1f, 0x00, 0xff,
   0x01, 0xf0, 0x01, 0x00, 0x00, 0x7c, 0x1f, 0x00, 0x00, 0xc0, 0x07, 0xc0,
   0x7f, 0x00, 0xfc, 0x07, 0xc0, 0x7f, 0x00, 0x00, 0xff, 0x01, 0xf0, 0x1f,
   0x00, 0xff, 0x01, 0xf0, 0x01, 0x00, 0x00, 0x7c, 0x1f, 0x00, 0x00, 0xc0,
   0x07, 0xc0, 0x7f, 0x00, 0xfc, 0x07, 0xc0, 0x7f, 0x00, 0x00, 0xff, 0x01,
   0xf0, 0x1f, 0x00, 0xff, 0x01, 0xf0, 0x01, 0x00, 0x00, 0x7c, 0xff, 0xff,
   0xff, 0xff, 0x07, 0x00, 0x00, 0x00, 0x00, 0x00, 0x00, 0x00, 0x00, 0x00,
   0x00, 0x00, 0x00, 0x00, 0x00, 0x00, 0x00, 0xf0, 0xff, 0xff, 0xff, 0x7f,
   0xff, 0xff, 0xff, 0xff, 0x07, 0x00, 0x00, 0x00, 0x00, 0x00, 0x00, 0x00,
   0x00, 0x00, 0x00, 0x00, 0x00, 0x00, 0x00, 0x00, 0x00, 0xf0, 0xff, 0xff,
   0xff, 0x7f, 0xff, 0xff, 0xff, 0xff, 0x07, 0x00, 0x00, 0x00, 0x00, 0x00,
   0x00, 0x00, 0x00, 0x00, 0x00, 0x00, 0x00, 0x00, 0x00, 0x00, 0x00, 0xf0,
   0xff, 0xff, 0xff, 0x7f, 0xff, 0xff, 0xff, 0xff, 0x07, 0x00, 0x00, 0x00,
   0x00, 0x00, 0x00, 0x00, 0x00, 0x00, 0x00, 0x00, 0x00, 0x00, 0x00, 0x00,
   0x00, 0xf0, 0xff, 0xff, 0xff, 0x7f, 0xff, 0xff, 0xff, 0xff, 0x07, 0x00,
   0x00, 0x00, 0x00, 0x00, 0x00, 0x00, 0x00, 0x00, 0x00, 0x00, 0x00, 0x00,
   0x00, 0x00, 0x00, 0xf0, 0xff, 0xff, 0xff, 0x7f};
