/* XPM */
static char * blk_new_xpm[] = {
/* width height num_colors chars_per_pixel */
"16 16 4 1",
/* colors */
" 	c magenta",
".	c magenta4",
"X	c red",
"o	c white",
/* pixels */
"                ",
"                ",
"     .......    ",
"   XX.......XX  ",
"   XX..ooo..XX  ",
"     ..ooo..    ",
"   XX..ooo..XX  ",
"   XX..ooo..XX  ",
"     ..ooo..    ",
"   XX..ooo..XX  ",
"   XX..ooo..XX  ",
"     ..ooo..    ",
"   XX..ooo..XX  ",
"   XX.......XX  ",
"     .......    ",
"                "};
