/* XPM */
static char * blk_root_xpm[] = {
/* width height num_colors chars_per_pixel */
"16 16 5 1",
/* colors */
" 	c magenta",
".	c magenta4",
"X	c red",
"o	c white",
"O	c #a52a2a",
/* pixels */
"   ..........   ",
" XX..........XX ",
" XX..oooooo..XX ",
"   ..oooooo..   ",
" XX..oooooo..XX ",
" XX..........XX ",
"   ..........   ",
"   OOO O OO OOO ",
"  OO  OO OOO  OO",
" OO  OO  O OO   ",
" OOO O  OO OOOO ",
" O O    O     O ",
"OO OO  OOO    OO",
"  O O  O O   OOO",
"  O O O  OO  O  ",
"  O   O    O    "};
