/* XPM */
static char * badbp_xpm[] = {
/* width height num_colors chars_per_pixel */
"16 16 3 1",
/* colors */
" 	c #ff00ff",
".	c black",
"X	c #ffff00",
/* pixels */
"       ..       ",
"      .XX.      ",
"      .XX.      ",
"     .XXXX.     ",
"     .X..X.     ",
"    .XX..XX.    ",
"    .XX..XX.    ",
"   .XXX..XXX.   ",
"   .XXX..XXX.   ",
"  .XXXXXXXXXX.  ",
"  .XXXXXXXXXX.  ",
" .XXXXX..XXXXX. ",
" .XXXXX..XXXXX. ",
".XXXXXXXXXXXXXX.",
"................",
"                "};
