/* XPM */
static char * bp_disabled_xpm[] = {
"16 16 3 1",
" 	c blue",
".	c red",
"X	c white",
"      ....      ",
"    ........    ",
"   ...XXXX...   ",
"  ..XXXXXXXX..  ",
" ..XXXXXXXXXX.. ",
" ..XXXXXXXXXX.. ",
"..XXXXXXXXXXXX..",
"..XX........XX..",
"..XX........XX..",
"..XXXXXXXXXXXX..",
" ..XXXXXXXXXX.. ",
" ..XXXXXXXXXX.. ",
"  ..XXXXXXXX..  ",
"   ...XXXX...   ",
"    ........    ",
"      ....      "};
