/* XPM */
static char * broken_image_xpm[] = {
"32 32 2 1",
" 	c black",
".	c red",
"                                ",
" .............................. ",
" ............... .. ........... ",
" ............... .. ........... ",
" ............... .. ........... ",
" .. .  ...... .. .. ........... ",
" ..  .. .. .. .. .. ........... ",
" .. ... .. .. .. .. ........... ",
" .. ... .. .. .. .. ........... ",
" .. ... .. .. .. .. ........... ",
" .. ... .. .. .. .. ........... ",
" .. ... ...   .. .. ........... ",
" .............................. ",
" .............................. ",
" .............................. ",
" .............................. ",
" .. .. . . .....  ............. ",
" .....  . . ... .. ............ ",
" .. .. .. .. .. .. ............ ",
" .. .. .. .. .. .. ............ ",
" .. .. .. .. .. .. ............ ",
" .. .. .. .. .. .. ............ ",
" .. .. .. .. ...   ............ ",
" ................. ............ ",
" ................. ............ ",
" ................. ............ ",
" ................. ............ ",
" ...............  ............. ",
" .............................. ",
" .............................. ",
" .............................. ",
"                                "};
