/* XPM */
static char *bug_curs[] = {
/* width height num_colors chars_per_pixel */
"    16    16        2            1",
/* colors */
". c #ffffff",
"# c #000000",
/* pixels */
"...###..........",
"....###.........",
".....##.........",
"#....##.........",
"##..###.........",
"########........",
".########.......",
"..##.#####......",
"......#####.....",
".......#####....",
"........#####...",
".........#####..",
"..........#####.",
"...........##..#",
"............#..#",
".............###"
};
