/* XPM */
static char * arrow0_xpm[] = {
/* width height num_colors chars_per_pixel */
"16 16 59 1",
/* colors */
" 	c white",
".	c #8888b2",
"X	c #8e8ebe",
"o	c #8a8ab9",
"O	c #a0a0d6",
"+	c #9f9fd5",
"@	c #9e9ed5",
"#	c #9d9dd4",
"$	c #9c9cd3",
"%	c #9b9bd1",
"&	c #9a9ad0",
"*	c #9999cf",
"=	c #9898ce",
"-	c #9898cd",
";	c #aaaae8",
":	c #a9a9e8",
">	c #a8a8e7",
",	c #a7a7e7",
"<	c #a6a6e6",
"1	c #a5a5e4",
"2	c #a4a4e3",
"3	c #a3a3e1",
"4	c #a1a1df",
"5	c #9f9fdd",
"6	c #9d9dda",
"7	c #a8a8e9",
"8	c #a7a7e9",
"9	c #a7a7e8",
"0	c #a6a6e8",
"q	c #a6a6e7",
"w	c #a5a5e7",
"e	c #a5a5e6",
"r	c #a4a4e6",
"t	c #a1a1e3",
"y	c #a0a0e2",
"u	c #9f9fe1",
"i	c #9f9fe0",
"p	c #9e9ee0",
"a	c #9e9edf",
"s	c #9d9ddf",
"d	c #9a9adb",
"f	c #9b9bdc",
"g	c #9b9bdd",
"h	c #9c9cdd",
"j	c #9c9cde",
"k	c #9d9dde",
"l	c #8b8bca",
"z	c #8a8ac9",
"x	c #8a8ac8",
"c	c #8989c8",
"v	c #8989c7",
"b	c #7878b1",
"n	c #7777b0",
"m	c #7777af",
"M	c #7676af",
"N	c #7676ae",
"B	c #616193",
"V	c #606092",
"C	c #4b4b75",
/* pixels */
"                ",
"                ",
"                ",
"         .      ",
"         Xo     ",
"  O+@#$%&*=-    ",
"  ;:>,<123456   ",
"  77777890qwer  ",
"  tyyuipasssapp ",
"  dfghjkkjhhfd  ",
"  llllllzzxcv   ",
"  bnmMNNNNMM    ",
"         BV     ",
"         C      ",
"                ",
"                "};
