/* XPM */
static char * del_curs_S_xpm[] = {
/* width height num_colors chars_per_pixel */
"16 16 3 1",
/* colors */
" 	c blue",
".	c #BBBBBBBBFFFF",
"X	c black",
/* pixels */
"                ",
" .....XXXX..... ",
" .....XXXX..... ",
" .....XXXX..... ",
" .....XXXX..... ",
" .....XXXX..... ",
" ......XX...... ",
" ......XX...... ",
" ......XX...... ",
" ......XX...... ",
" ......XX...... ",
" XXXXXXXXXXXXXX ",
" XXXXXXXXXXXXXX ",
" X............X ",
" X............X ",
"                "};
