/* XPM */
static char * delgate_xpm[] = {
"16 16 8 1",
" 	c magenta",
".	c #555565655757",
"X	c black",
"o	c yellow",
"O	c blue",
"+	c white",
"@	c #008b00",
"#	c #FFFF55552222",
"                ",
"                ",
"           ..XX ",
"          .ooXX ",
"  OOOOOOO.oooo. ",
"  O+++++.ooooo. ",
"@@O++++.ooooo.  ",
"  O+++.ooooo.   ",
"  O++#ooooo.+O  ",
"  O+##oooo.++O@@",
"  O####oo.+++O  ",
"  XX#####+++O   ",
"    X###+++O    ",
"      #++OO     ",
"      XOO       ",
"                "};
