/* XPM */
static char * down_xpm[] = {
"10 5 2 1",
" 	c black",
".	c white",
"          ",
".        .",
"..      ..",
"...    ...",
"....  ...."};
