/* XPM */
static char * edit_overlay_xpm[] = {
/* width height num_colors chars_per_pixel */
"16 16 9 1",
/* colors */
" 	s None	c None",
".	c #ccbb77",
"X	c #b3b3b3",
"o	c #999999",
"O	c #e5e5e5",
"+	c #4d4d4d",
"@	c white",
"#	c #666666",
"$	c black",
/* pixels */
"  ...XXXXXX...  ",
"  ..oooooooo..  ",
"  ...OOOOOO...  ",
"  ......+++++.  ",
"  ......+@@@++  ",
"  .....#+@@@+o+ ",
"  .....#+@@$++++",
"  .....#+@@$$@@+",
"  .....#+$$$$$$+",
"  .....#+$$$$$$+",
"  .....#+@@$$@@+",
"  .....#+@@$$@@+",
"  .....#+@@@@@@+",
"  .....#++++++++",
"  .....#######  ",
"  ............  "};
