/* XPM */
static char * blackbox_xpm[] = {
/* width height num_colors chars_per_pixel */
"16 16 51 1",
/* colors */
" 	c magenta",
".	c magenta4",
"X	c white",
"o	c red",
"O	c #eeedec",
"+	c #ccc9c8",
"@	c #bfbbba",
"#	c #9f9996",
"$	c #afaaa8",
"%	c #9e9896",
"&	c #eae9e9",
"*	c #675f5b",
"=	c #6e6561",
"-	c #6f6662",
";	c #6e6562",
":	c #706763",
">	c #cfccca",
",	c #4f4946",
"<	c #6e6662",
"1	c #6d6460",
"2	c #6d6561",
"3	c #706864",
"4	c #877e7b",
"5	c #f1f0f0",
"6	c #d5d4d3",
"7	c #453f3d",
"8	c #665e5a",
"9	c #887e79",
"0	c #867c77",
"q	c #8c827d",
"w	c #8d827d",
"e	c #e5e2e1",
"r	c #c1bfbe",
"t	c #6a625e",
"y	c #877d78",
"u	c #887d79",
"i	c #d5d2d0",
"p	c #6a615e",
"a	c #877c78",
"s	c #e3e1e0",
"d	c #69615d",
"f	c #867b77",
"g	c #d7d3d2",
"h	c #6b635f",
"j	c #867c78",
"k	c #e4e2e1",
"l	c #a19b98",
"z	c #9e9692",
"x	c #a49d9b",
"c	c #c5c1bf",
"v	c #d6d3d1",
/* pixels */
"                ",
"   ...........  ",
"   .XXXXXXXXX.  ",
" oo.XO+@#$%XX.oo",
"   .&*=-;-:>X.  ",
"   .&,<12-345.  ",
" oo.67890qw9e.oo",
"   .r7tyu9y9i.  ",
"   .67paa9yus.  ",
" oo.X7d0yyf9g.oo",
"   .Xrhja000k.  ",
"   .XXlzxcvkX.  ",
" oo.XXXXXXXXX.oo",
"   ...........  ",
"                ",
"                "};
