/* XPM */
static char * err_arrow_xpm[] = {
"14 9 2 1",
" 	c magenta",
".	c red",
"         .    ",
"         ..   ",
".......... .  ",
".           . ",
".            .",
".           . ",
".......... .  ",
"         ..   ",
"         .    "};
