/* XPM */
static char * go_indicator_xpm[] = {
/* width height num_colors chars_per_pixel */
"17 17 24 1",
/* colors */
" 	c #A0A0A0A0C0C0",
".	c #fdfdfe",
"X	c #686874",
"o	c #51515c",
"O	c #4d4d58",
"+	c #a1a1ac",
"@	c #62626d",
"#	c #797985",
"$	c #d9d9e5",
"%	c #91919c",
"&	c #e7e7f3",
"*	c #b1b1bd",
"=	c #585864",
"-	c #81818d",
";	c #d2d2dd",
":	c #888893",
">	c #e1e1ec",
",	c #9a9aa6",
"<	c #b8b8c3",
"1	c #c2c2cd",
"2	c #3e3e40",
"3	c #ccccd8",
"4	c #a8a8b4",
"5	c #71717d",
/* pixels */
"                 ",
"  .XoO           ",
" ..+@o           ",
" #$..$#@O        ",
" %&...$*=oO      ",
" -;&....&*:=O    ",
" %$.......>-==   ",
" ,>.........&+O  ",
" %<..........12O ",
" -&...$3;&.&;4O  ",
" -1......><@oo   ",
" 53.....<,5OO    ",
" ->...*#OOO      ",
" #>.$<X=O        ",
" O@#@O           ",
"  OOOO           ",
"                 "};
