/* XPM */
static char * helpdoc_xpm[] = {
"16 16 7 1",
" 	c white",
".	c #88887777FFFF",
"X	c gray80",
"o	c beige",
"O	c gray30",
"+	c black",
"@	c gray50",
"                ",
"                ",
" ......  ...... ",
".Xooooo..oooooO.",
".Xo+o+o@Xo++ooO.",
".Xooooo@XoooooO.",
".Xo+++o@Xo+o+oO.",
".Xooooo@XoooooO.",
".Xo++oo@Xo++ooO.",
".Xooooo@XoooooO.",
".Xo+o+o@Xo+++oO.",
".Xooooo@XoooooO.",
".XXXXXX@XXXXXXO.",
".......@X.......",
".      ..      .",
"                "};
