/* XPM */
static char * i_circprops_xpm[] = {
"16 16 7 1",
" 	c magenta",
".	c gray47",
"X	c blue",
"o	c white",
"O	c #008b00",
"+	c gray72",
"@	c black",
"    ......      ",
"  XX.ooooo..    ",
"OOXo.ooooo+o.   ",
"  Xo.o@@@o+@@@  ",
"OOXo.ooooooo+@  ",
"  XX.o@@o@@@+@  ",
"    .ooooooo+@  ",
"    .o@@o@o@+@  ",
"    .++++++++@  ",
"    @@@@@@@@@@  ",
"  XXXX  OOXoooX ",
"OOXoooX   XooooX",
"  XooooXOOXoooX ",
"OOXoooX   XXXX  ",
"  XXXX          ",
"                "};
