/* XPM */
static char * i_gateprops_xpm[] = {
"16 16 7 1",
" 	c magenta",
".	c gray47",
"X	c white",
"o	c gray72",
"O	c black",
"+	c blue",
"@	c #008b00",
"    ......      ",
"    .XXXXX..    ",
"    .XXXXXoX.   ",
"    .XOOOXoOOO  ",
"  ++.XXXXXXXoO  ",
"  +X.XOOXOOOoO  ",
"@@+X.XXXXXXXoO  ",
"  +X.XOOXOXOoO  ",
"  +X.ooooooooO  ",
"  +XOOOOOOOOOO@@",
"  +XXXXXXXXXX+  ",
"  +XXXXXXXXX+   ",
"@@+XXXXXXXX+    ",
"  +XXXXXX++     ",
"  +++++++       ",
"                "};
