/* XPM */
static char * i_modprops_xpm[] = {
"16 16 7 1",
" 	c magenta",
".	c gray47",
"X	c magenta4",
"o	c white",
"O	c gray72",
"+	c red",
"@	c black",
"      ......    ",
"   XXX.ooooo..  ",
"   XXX.oooooOo. ",
" ++XXo.o@@@oO@@@",
"   XXo.oooooooO@",
"   XXo.o@@o@@@O@",
" ++XXo.oooooooO@",
"   XXo.o@@o@o@O@",
"   XXo.OOOOOOOO@",
" ++XXo@@@@@@@@@@",
"   XXooooooXX   ",
"   XXooooooXX   ",
" ++XXooooooXX++ ",
"   XXXXXXXXXX   ",
"   XXXXXXXXXX   ",
"                "};
