/* XPM */
static char * i_portprops_xpm[] = {
"16 16 8 1",
" 	c magenta",
".	c gray47",
"X	c white",
"o	c gray72",
"O	c black",
"+	c magenta4",
"@	c cyan4",
"#	c red",
" ......         ",
" .XXXXX..       ",
" .XXXXXoX.      ",
" .XOOOXoOOO     ",
" .XXXXXXXoO     ",
" .XOOXOOOoO     ",
" .XXXXXXXoO     ",
" .XOOXOXOoO     ",
" .ooooooooO     ",
" OOOOOOOOOO     ",
"     ++         ",
" @@  ++         ",
" @ @ ++#########",
" @@  ++#########",
" @   ++         ",
" @   ++         "};
