/* XPM */
static char * i_wireprops_xpm[] = {
"16 16 7 1",
" 	c magenta",
".	c gray47",
"X	c white",
"o	c gray72",
"O	c black",
"+	c blue",
"@	c green4",
"   ......       ",
"   .XXXXX..     ",
"   .XXXXXoX.    ",
"   .XOOOXoOOO   ",
"   .XXXXXXXoO   ",
"   .XOOXOOOoO   ",
"   .XXXXXXXoO   ",
"   .XOOXOXOoO   ",
"   .ooooooooO   ",
"   OOOOOOOOOO   ",
"     +++        ",
"@@@@@+++@@@@@@@@",
"     +++        ",
"      @         ",
"      @         ",
"      @         "};
