/* XPM */
static char * ipanel_block_xpm[] = {
"75 75 4 1",
" 	c white",
".	c magenta4",
"X	c cyan4",
"o	c green4",
"                                                                           ",
"                                                                           ",
"                                                                           ",
"                                                                           ",
"                                                                           ",
"                                                                           ",
"                                                                           ",
"                                                                           ",
"                                                                           ",
"                                                                           ",
"                                                                           ",
"                ..........................................                 ",
"                .                                        .                 ",
"                .                                        .                 ",
"                .                                        .                 ",
"                .                                        .                 ",
"                .  XXX   X                   XXXXX  X    .                 ",
"                .   X   XX                      X  XX    .                 ",
"                .   X    X                     X    X    .                 ",
"      oooooooooo.   X    X                     X    X    .oooooooooo       ",
"                .   X    X                     X    X    .                 ",
"                .   X    X                    X     X    .                 ",
"                .  XXX  XXX                  XXXXX XXX   .                 ",
"                .                                        .                 ",
"                .                                        .                 ",
"                .  XXX   XX                  XXXXX  XX   .                 ",
"                .   X   X  X                    X  X  X  .                 ",
"                .   X      X                   X      X  .                 ",
"      oooooooooo.   X     X                    X     X   .oooooooooo       ",
"                .   X    X                     X    X    .                 ",
"                .   X   X                     X    X     .                 ",
"                .  XXX  XXXX                 XXXXX XXXX  .                 ",
"                .                                        .                 ",
"                .                                        .                 ",
"                .  XXX   XX                  XXXXX  XX   .                 ",
"                .   X   X  X                    X  X  X  .                 ",
"                .   X      X                   X      X  .                 ",
"      oooooooooo.   X    XX                    X    XX   .oooooooooo       ",
"                .   X      X                   X      X  .                 ",
"                .   X   X  X                  X    X  X  .                 ",
"                .  XXX   XX                  XXXXX  XX   .                 ",
"                .                                        .                 ",
"                .                                        .                 ",
"                .  XXX   XX                  XXXXX  XX   .                 ",
"                .   X   X X                     X  X X   .                 ",
"                .   X   X X                    X   X X   .                 ",
"      oooooooooo.   X   XXXX                   X   XXXX  .oooooooooo       ",
"                .   X     X                    X     X   .                 ",
"                .   X     X                   X      X   .                 ",
"                .  XXX    X                  XXXXX   X   .                 ",
"                .                                        .                 ",
"                .                                        .                 ",
"                .  XXX  XXXX                 XXXXX XXXX  .                 ",
"                .   X   X                       X  X     .                 ",
"                .   X   X                      X   X     .                 ",
"      oooooooooo.   X   XXX                    X   XXX   .oooooooooo       ",
"                .   X      X                   X      X  .                 ",
"                .   X      X                  X       X  .                 ",
"                .  XXX  XXX                  XXXXX XXX   .                 ",
"                .                                        .                 ",
"                .                                        .                 ",
"                .                                        .                 ",
"                .                                        .                 ",
"                ..........................................                 ",
"                                                                           ",
"                                                                           ",
"                                                                           ",
"                                                                           ",
"                                                                           ",
"                                                                           ",
"                                                                           ",
"                                                                           ",
"                                                                           ",
"                                                                           ",
"                                                                           "};
