/* XPM */
static char * ipanel_symbol_xpm[] = {
/* width height num_colors chars_per_pixel */
"75 75 3 1",
/* colors */
" 	c white",
".	c #8b008b",
"X	c #008b00",
/* pixels */
"                                                                           ",
"                                                                           ",
"                                                                           ",
"                                                                           ",
"                                                                           ",
"                                                                           ",
"                                                                           ",
"                                                                           ",
"                                                                           ",
"                                                                           ",
"                                                                           ",
"                                                                           ",
"                                                                           ",
"                                                                           ",
"                                                                           ",
"                                                                           ",
"                                                                           ",
"                      ............                                         ",
"                      .           ..                                       ",
"                      .             .                                      ",
"            XXXXXXXXXX.              .                                     ",
"                      .               .                                    ",
"                      .               .                                    ",
"                      .                .                                   ",
"                      .                .                                   ",
"                      .                ...........                         ",
"                      .               .  .        ..                       ",
"                      .               .  .          ..                     ",
"            XXXXXXXXXX.              .    .           .                    ",
"                      .             .     .            .                   ",
"                      .           ..       .            .                  ",
"                      ............         .             .                 ",
"                                           .              .XXXXXXXX        ",
"                      ............         .             .                 ",
"                      .           ..       .            .                  ",
"                      .             .     .            .                   ",
"            XXXXXXXXXX.              .    .           .                    ",
"                      .               .  .          ..                     ",
"                      .               .  .        ..                       ",
"                      .                ...........                         ",
"                      .                .                                   ",
"                      .                .                                   ",
"                      .               .                                    ",
"                      .               .                                    ",
"            XXXXXXXXXX.              .                                     ",
"                      .             .                                      ",
"                      .           ..                                       ",
"                      ............                                         ",
"                                                                           ",
"                        .      .      .      ..                            ",
"                       . .    . .    . .    . .                            ",
"                      .   .  .   .  .   .  .  .                            ",
"                      .   .  .   .  .   .  .  .                            ",
"                      .....  .....  .   .  .....                           ",
"                      .   .  .   .  .   .     .                            ",
"                      .   .  .   .   . .      .                            ",
"                      .   .  .   .    .                                    ",
"                                                                           ",
"                                                                           ",
"                                                                           ",
"                                                                           ",
"                                                                           ",
"                                                                           ",
"                                                                           ",
"                                                                           ",
"                                                                           ",
"                                                                           ",
"                                                                           ",
"                                                                           ",
"                                                                           ",
"                                                                           ",
"                                                                           ",
"                                                                           ",
"                                                                           ",
"                                                                           "};
