/* XPM */
static char * jkff_xpm[] = {
/* width height num_colors chars_per_pixel */
"50 50 3 1",
/* colors */
" 	c white",
".	c #008b00",
"X	c #0000ff",
/* pixels */
"                                                  ",
"                    .         .                   ",
"                    .         .                   ",
"                    .         .                   ",
"                    .         .                   ",
"                    .         .                   ",
"                    .         .                   ",
"                    .         .                   ",
"                    .         .                   ",
"                    .         .                   ",
"                    .         .                   ",
"          XXXXXXXXXXXXXXXXXXXXXXXXXXXXXXX         ",
"          X                             X         ",
"          X       XXXX        XXX       X         ",
"          X                             X         ",
"          X       XXX         XXX       X         ",
"          X       X  X        X         X         ",
"          X       XXX         X         X         ",
"          X XXXX  X           X     XX  X         ",
"          X   X   X           XXX  X  X X         ",
"          X   X                    X  X X         ",
" .........X X X                    X XX X........ ",
"          X  X                      XXX X         ",
"          X                             X         ",
"          X                             X         ",
"          X                             X         ",
"          X                             X         ",
"          X                             X         ",
"          X                        XXXX X         ",
"          X                             X         ",
"          X X  X                    XX  X         ",
" .........X X X                    X  X X........ ",
"          X XX                     X  X X         ",
"          X X X                    X XX X         ",
"          X X  X                    XXX X         ",
"          X                             X         ",
"          X              X              X         ",
"          X             X X             X         ",
"          X            X   X            X         ",
"          X           X     X           X         ",
"          X          X       X          X         ",
"          XXXXXXXXXXXXXXXXXXXXXXXXXXXXXXX         ",
"                         .                        ",
"                         .                        ",
"                         .                        ",
"                         .                        ",
"                         .                        ",
"                         .                        ",
"                         .                        ",
"                                                  "};
