/* XPM */
static char *module[] = {
/* width height num_colors chars_per_pixel */
"    16    16        3            1",
/* colors */
". c #ff0000",
"# c #8b008b",
"a c #ffffff",
/* pixels */
"aaaaaaaaaaaaaaaa",
"aaa##########aaa",
"aaa##########aaa",
"a..##aaaaaa##..a",
"aaa##aaaaaa##aaa",
"aaa##aaaaaa##aaa",
"a..##aaaaaa##..a",
"aaa##aaaaaa##aaa",
"aaa##aaaaaa##aaa",
"a..##aaaaaa##..a",
"aaa##aaaaaa##aaa",
"aaa##aaaaaa##aaa",
"a..##aaaaaa##..a",
"aaa##########aaa",
"aaa##########aaa",
"aaaaaaaaaaaaaaaa"
};
