/* XPM */
static char * output_xpm[] = {
/* width height num_colors chars_per_pixel */
"16 16 5 1",
/* colors */
" 	c white",
".	c #cccccc",
"X	c #9999ff",
"o	c #7f7f7f",
"O	c black",
/* pixels */
"  ............  ",
" .............. ",
"..XXXXXXXXXXXXoo",
"..XXXXXXXXXXXXoo",
"..XOOXXXXXXOXXoo",
"..OXXOXXXXOOOXoo",
"..OXXOXXXXXOXXoo",
"..OXXOXOXOXOXXoo",
"..OXXOXOXOXOXXoo",
"..OXXOXOXOXOXXoo",
"..OXXOXOXOXOXOoo",
"..XOOXXXOOXXOXoo",
"..XXXXXXXXXXXXoo",
"..XXXXXXXXXXXXoo",
" .ooooooooooooo ",
"  oooooooooooo  "};
