/* XPM */
static char * pause_indicator_xpm[] = {
/* width height num_colors chars_per_pixel */
"20 21 22 1",
/* colors */
" 	c #A0A0A0A0C0C0",
".	c #fbfbfe",
"X	c #a9a9b5",
"o	c #8a8a96",
"O	c #4d4d58",
"+	c #dbdbe6",
"@	c #71717b",
"#	c #e1e1ec",
"$	c #eaeaf5",
"%	c #53535b",
"&	c #bbbbc6",
"*	c #696974",
"=	c #62626d",
"-	c #cbcbd7",
";	c #9a9aa5",
":	c #454547",
">	c #777783",
",	c #b1b1bd",
"<	c #d2d2dd",
"1	c #c2c2cd",
"2	c #a1a1ac",
"3	c #5a5a66",
/* pixels */
"                    ",
"                    ",
"                    ",
"    .XooO  .+o@O    ",
"    ..#$%O...+&*    ",
"   =X...@%@-...XO   ",
"   =;.$.@:>#.$.,O   ",
"   @X.<.@::-.#.XO   ",
"   >&...>::<...XO   ",
"   @&...>::&...XO   ",
"   *1...>::-.$.2O   ",
"   *,...@::1...&O   ",
"   *&...*::1...;O   ",
"   @X.$.@::+.$.;O   ",
"   =;...*::&...&O   ",
"   =;.$$@::-.#$XO   ",
"    O>@>OOO3*>>=    ",
"    O3O%O  OOO%O    ",
"                    ",
"                    ",
"                    "};
