/* XPM */
static char * port_out2_xpm[] = {
/* width height num_colors chars_per_pixel */
"16 16 6 1",
/* colors */
" 	c magenta",
".	c #cccccc",
"X	c #ddddff",
"o	c #7f7f7f",
"O	c blue",
"+	c red",
/* pixels */
"  ............  ",
" .............. ",
"..XXXXXXXXXXXXoo",
"..XXXXXXXXXXXXoo",
"..XXXXXXXXXOOXoo",
"..XXXXXXXXOOXXoo",
"..X+++++OOOXXXoo",
"..X+++++OOXXXXoo",
"..XXXXXXXOOXXXoo",
"..XXXXXXXXOOXXoo",
"..XXXXXXXXXOOXoo",
"..XXXXXXXXXXXXoo",
"..XXXXXXXXXXXXoo",
"..XXXXXXXXXXXXoo",
" .ooooooooooooo ",
"  oooooooooooo  "};
