/* XPM */
static char * port_inout2_xpm[] = {
/* width height num_colors chars_per_pixel */
"16 16 6 1",
/* colors */
" 	c magenta",
".	c #cccccc",
"X	c #ddddff",
"o	c #7f7f7f",
"O	c blue",
"+	c #008b00",
/* pixels */
"  ............  ",
" .............. ",
"..XXXXXXXXXXXXoo",
"..XXXXXXXXXXXXoo",
"..XXXXXXXOOXXXoo",
"..XXXXXXOOOOXXoo",
"..XXXXOOOXXOOOoo",
"..X+++OOXXXXOOoo",
"..XXXXXOOXXOOXoo",
"..XXXXXXOOOOXXoo",
"..XXXXXXXOOXXXoo",
"..XXXXXXXXXXXXoo",
"..XXXXXXXXXXXXoo",
"..XXXXXXXXXXXXoo",
" .ooooooooooooo ",
"  oooooooooooo  "};
