/* XPM */			     
static char * rotation270_S_xpm[] = {
/* width height num_colors chars_per_pixel */
"16 16 3 1",			     
/* colors */			     
" 	c #0000ff",		     
".	c #BBBBBBBBFFFF",
"X	c #ff0000",
/* pixels */
"                ",
"  .XXXXXXXXXX   ",
"  XXX..XX..XXX. ",
" XX....XX....XX ",
" XX..........XX ",
" X..        ..X ",
" X.. ...... ..X ",
" XXX. .... .XXX ",
" XXX. .... .XXX ",
" X.... .. ....X ",
" X.... .. ....X ",
" XX....  ....XX ",
" XX....XX....XX ",
" .XXX..XX..XXX  ",
"   XXXXXXXXXX.  ",
"                "};
