/* XPM */
static char *symed_point[] = {
/* width height num_colors chars_per_pixel */
"    16    16        3            1",
/* colors */
". c #000000",
"# c #8b008b",
"a c #ffffff",
/* pixels */
"aaa#aaaa#aaaa#aa",
"aaa#aaaa#aaaa#aa",
"################",
"aaa#....#aaaa#aa",
"aaa#....#aaaa#aa",
"aaa#....#aaaa#aa",
"aaa#....#aaaa#aa",
"################",
"aaa#aaaa#....#aa",
"aaa#aaaa#....#aa",
"aaa#aaaa#....#aa",
"aaa#aaaa#....#aa",
"################",
"aaa#aaaa#aaaa#aa",
"aaa#aaaa#aaaa#aa",
"aaa#aaaa#aaaa#aa"
};
