/* XPM */
static char * symed_pcrot_xpm[] = {
/* width height num_colors chars_per_pixel */
"16 16 4 1",
/* colors */
" 	c white",
".	c red",
"X	c #88888888FFFF",
"o	c blue",
/* pixels */
"     ...        ",
"    .....       ",
"    ........... ",
"    .....       ",
"     ...   XXX  ",
"           Xoo  ",
"           Xoo  ",
"          XooX  ",
"     X    XooX  ",
"    Xo  XXooX   ",
"   XooXXoooX    ",
"  XoooooooX     ",
"  XoooooXX      ",
"   XooXX        ",
"    Xo          ",
"     X          "};
