/* XPM */
static char * symed_cwrotate_xpm[] = {
/* width height num_colors chars_per_pixel */
"16 16 146 2",
/* colors */
"  	c white",
". 	c #d8d8d8",
"X 	c #cbcbd1",
"o 	c #aeaebe",
"O 	c #8d8da0",
"+ 	c #737389",
"@ 	c #808091",
"# 	c #a1a1ab",
"$ 	c #b1b1d2",
"% 	c #8b8bb7",
"& 	c #7f7fa1",
"* 	c #707092",
"= 	c #626283",
"- 	c #5c5c7d",
"; 	c #414160",
": 	c #343452",
"> 	c #7a7a8b",
", 	c #b2b2da",
"< 	c #a0a0c8",
"1 	c #9090ba",
"2 	c #9696c5",
"3 	c #9d9dd0",
"4 	c #b0b0e9",
"5 	c #b7b7e8",
"6 	c #a0a0cd",
"7 	c #606083",
"8 	c #353554",
"9 	c #b4b4d6",
"0 	c #acacd4",
"q 	c #9191bb",
"w 	c #75759e",
"e 	c #55557f",
"r 	c #474770",
"t 	c #50507f",
"y 	c #8383b8",
"u 	c #bbbbf1",
"i 	c #cdcdf0",
"p 	c #68688c",
"a 	c #323251",
"s 	c #54546c",
"d 	c #54546b",
"f 	c #8c8c9a",
"g 	c #ccccd2",
"h 	c #9898c7",
"j 	c #9c9cc7",
"k 	c #6a6a91",
"l 	c #373758",
"z 	c #8d8d9b",
"x 	c #c6c6ca",
"c 	c #a7a7c3",
"v 	c #a5a5e0",
"b 	c #bdbdde",
"n 	c #3e3e5f",
"m 	c #313150",
"M 	c #2e2e4c",
"N 	c #9f9faa",
"B 	c #b7b7c7",
"V 	c #a5a5d3",
"C 	c #8282ac",
"Z 	c #393959",
"A 	c #8c8c99",
"S 	c #9393b0",
"D 	c #5e5e8d",
"F 	c #4e4e75",
"G 	c #2e2e4d",
"H 	c #9090ae",
"J 	c #b3b3e8",
"K 	c #67678c",
"L 	c #2d2d4c",
"P 	c #5f5f80",
"I 	c #52528b",
"U 	c #64649e",
"Y 	c #5a5a87",
"T 	c #404062",
"R 	c #2f2f4d",
"E 	c #b2b2b9",
"W 	c #7d7da2",
"Q 	c #bbbbf2",
"! 	c #525274",
"~ 	c #3e3e5a",
"^ 	c #9292a4",
"/ 	c #64648a",
"( 	c #56568c",
") 	c #52527c",
"_ 	c #323252",
"` 	c #c5c5c9",
"' 	c #9494b0",
"] 	c #bebef5",
"[ 	c #515173",
"{ 	c #2a2a4a",
"} 	c #a3a3b3",
"| 	c #5c5c88",
" .	c #45456b",
"..	c #9c9cb3",
"X.	c #b6b6ed",
"o.	c #8989b5",
"O.	c #79798a",
"+.	c #d2d2dc",
"@.	c #babac5",
"#.	c #b6b6bf",
"$.	c #9797d5",
"%.	c #c4c4eb",
"&.	c #555578",
"*.	c #acacc2",
"=.	c #b4b4da",
"-.	c #a7a7d3",
";.	c #8d8da6",
":.	c #c6c6c9",
">.	c #7d7da1",
",.	c #d3d3fd",
"<.	c #b2b2db",
"1.	c #5a5a7d",
"2.	c #393957",
"3.	c #3a3a5a",
"4.	c #555573",
"5.	c #676789",
"6.	c #9292b6",
"7.	c #9a9ac3",
"8.	c #7d7da7",
"9.	c #3d3d5e",
"0.	c #67677b",
"q.	c #8e8eb7",
"w.	c #c0c0f6",
"e.	c #ccccf5",
"r.	c #9494bf",
"t.	c #76769b",
"y.	c #78789d",
"u.	c #8c8cb4",
"i.	c #9696c3",
"p.	c #8181ad",
"a.	c #48486b",
"s.	c #9292b2",
"d.	c #8686be",
"f.	c #b1b1ed",
"g.	c #b2b2ee",
"h.	c #9999d2",
"j.	c #8f8fc4",
"k.	c #62628e",
"l.	c #38385a",
"z.	c #b3b3bb",
"x.	c #9898ae",
"c.	c #767693",
"v.	c #72728e",
"b.	c #7f7f93",
"n.	c #8e8e9c",
"m.	c #b3b3b9",
/* pixels */
"      . X o O + @ # . .         ",
"    . $ % & * = - ; : > .       ",
"  . , < 1 2 3 4 5 6 7 8 > . .   ",
". 9 0 q w e r t y u i p a s d f ",
"g h j k l z . . x c v b n m M N ",
"B V C Z A .       . S D F 8 G N ",
"H J K L .       . P I U Y T R E ",
"W Q ! ~ .         . ^ / ( ) _ ` ",
"' ] [ { .           . . } |  .` ",
"..X.o.a O..           +.. . @.. ",
"#.$.%.&.m A ` . g *.=.-.;.:..   ",
". >.,.<.1.2.3.4.5.6.7.8.9.0..   ",
"  . q.w.e.r.t.y.u.i.p.a.s .     ",
"    . s.d.f.g.h.j.k.l.0..       ",
"      . z.x.c.v.b.n.m..         ",
"            . . .               "};
