/* XPM */
static char * symed_port_S_xpm[] = {
/* width height num_colors chars_per_pixel */
"16 16 3 1",
/* colors */
" 	c blue",
".	c #BBBBBBBBFFFF",
"X	c red",
/* pixels */
"                ",
" .............. ",
" .............. ",
" .....XXXX..... ",
" ....XXXXXX.... ",
" ...XXXXXXXX... ",
" XXXXXXXXXXX... ",
" XXXXXXXXXXX... ",
" ...XXXXXXXX... ",
" ....XXXXXX.... ",
" .....XXXX..... ",
" .............. ",
" .............. ",
" .............. ",
" .............. ",
"                "};
