/* XPM */
static char * symed_select_S_xpm[] = {
/* width height num_colors chars_per_pixel */
"16 16 3 1",
/* colors */
" 	c blue",
".	c #BBBBBBBBFFFF",
"X	c black",
/* pixels */
"                ",
" .............. ",
" .XX..XXXX..XX. ",
" .X..........X. ",
" .............. ",
" .............. ",
" .X..........X. ",
" .X..........X. ",
" .X..........X. ",
" .X..........X. ",
" .............. ",
" .............. ",
" .X..........X. ",
" .XX..XXXX..XX. ",
" .............. ",
"                "};
