/* XPM */
static char * symed_line_S_xpm[] = {
/* width height num_colors chars_per_pixel */
"16 16 3 1",
/* colors */
" 	c blue",
".	c #BBBBBBBBFFFF",
"X	c black",
/* pixels */
"                ",
" .............. ",
" .X............ ",
" ..X........... ",
" ...X.......... ",
" ....X......... ",
" .....X........ ",
" ......X....... ",
" .......X...... ",
" ........X..... ",
" .........X.... ",
" ..........X... ",
" ...........X.. ",
" ............X. ",
" .............. ",
"                "};
