/* XPM */
static char * symed_port_xpm[] = {
/* width height num_colors chars_per_pixel */
"16 16 2 1",
/* colors */
" 	c white",
".	c red",
/* pixels */
"                ",
"                ",
"                ",
"      ....      ",
"     ......     ",
"    ........    ",
"............    ",
"............    ",
"    ........    ",
"     ......     ",
"      ....      ",
"                ",
"                ",
"                ",
"                ",
"                "};
