/* XPM */
static char * symed_rect_S_xpm[] = {
/* width height num_colors chars_per_pixel */
"16 16 3 1",
/* colors */
" 	c blue",
".	c #BBBBBBBBFFFF",
"X	c black",
/* pixels */
"                ",
" .............. ",
" .XXXXXXXXXXXX. ",
" .X..........X. ",
" .X..........X. ",
" .X..........X. ",
" .X..........X. ",
" .X..........X. ",
" .X..........X. ",
" .X..........X. ",
" .X..........X. ",
" .X..........X. ",
" .X..........X. ",
" .XXXXXXXXXXXX. ",
" .............. ",
"                "};
