/* XPM */
static char * symed_ccwrotate_xpm[] = {
/* width height num_colors chars_per_pixel */
"16 16 143 2",
/* colors */
"  	c white",
". 	c #d8d8d8",
"X 	c #ccccd2",
"o 	c #aeaebe",
"O 	c #8c8ca0",
"+ 	c #747489",
"@ 	c #808092",
"# 	c #a0a0ab",
"$ 	c #b3b3d3",
"% 	c #8989b3",
"& 	c #7e7ea1",
"* 	c #6f6f92",
"= 	c #626284",
"- 	c #5d5d7f",
"; 	c #434363",
": 	c #343453",
"> 	c #7a7a8b",
", 	c #b5b5db",
"< 	c #acaccf",
"1 	c #9191ba",
"2 	c #9797c5",
"3 	c #9c9cd0",
"4 	c #b0b0ea",
"5 	c #b5b5e8",
"6 	c #a0a0cd",
"7 	c #626286",
"8 	c #353554",
"9 	c #9090a0",
"0 	c #8484aa",
"q 	c #ababd7",
"w 	c #8f8fb1",
"e 	c #707095",
"r 	c #7777a2",
"t 	c #595982",
"y 	c #59597d",
"u 	c #75759c",
"i 	c #6f6fa6",
"p 	c #bfbff8",
"a 	c #d4d4f9",
"s 	c #77779d",
"d 	c #333352",
"f 	c #79798a",
"g 	c #a1a1ac",
"h 	c #6868a9",
"j 	c #b9b9fd",
"k 	c #8585ad",
"l 	c #3e3e61",
"z 	c #2c2c4b",
"x 	c #8c8c9a",
"c 	c #c5c5c9",
"v 	c #8c8caa",
"b 	c #9d9dde",
"n 	c #cdcdf0",
"m 	c #555578",
"M 	c #42425d",
"N 	c #a3a3b0",
"B 	c #7171b6",
"V 	c #c7c7ff",
"C 	c #c0c0fa",
"Z 	c #6c6ca5",
"A 	c #7f7f93",
"S 	c #aeaec3",
"D 	c #bcbcee",
"F 	c #8f8fb7",
"G 	c #b4b4bc",
"H 	c #8484c9",
"J 	c #bebefd",
"K 	c #9292d7",
"L 	c #4a4a77",
"P 	c #303054",
"I 	c #67677c",
"U 	c #7b7bb3",
"Y 	c #b8b8e9",
"T 	c #424262",
"R 	c #66667b",
"E 	c #c6c6ca",
"W 	c #8d8dce",
"Q 	c #9a9adb",
"! 	c #484877",
"~ 	c #3f3f5e",
"^ 	c #8d8d9a",
"/ 	c #8e8eb8",
"( 	c #adadde",
") 	c #464667",
"_ 	c #67677b",
"` 	c #9c9cd9",
"' 	c #6a6a8e",
"] 	c #8a8a99",
"[ 	c #8484b3",
"{ 	c #ababdc",
"} 	c #474768",
"| 	c #54546c",
" .	c #bfbfcb",
"..	c #8f8f9e",
"X.	c #b2b2b9",
"o.	c #b3b3e1",
"O.	c #8888b2",
"+.	c #393959",
"@.	c #9f9faa",
"#.	c #d5d5dd",
"$.	c #c9c9e3",
"%.	c #555577",
"&.	c #43435f",
"*.	c #b1b1db",
"=.	c #a2a2ce",
"-.	c #696990",
";.	c #30304f",
":.	c #6c6c94",
">.	c #c6c6f6",
",.	c #b6b6dc",
"<.	c #5d5d80",
"1.	c #383858",
"2.	c #373756",
"3.	c #42425e",
"4.	c #2d2d4d",
"5.	c #464669",
"6.	c #9191bb",
"7.	c #8484ae",
"8.	c #3d3d5e",
"9.	c #7575a4",
"0.	c #c6c6f5",
"q.	c #c5c5ed",
"w.	c #7a7aa1",
"e.	c #747499",
"r.	c #6e6e95",
"t.	c #8888b4",
"y.	c #7a7aa4",
"u.	c #454568",
"i.	c #9c9cbf",
"p.	c #8e8ec8",
"a.	c #b0b0e9",
"s.	c #b1b1ee",
"d.	c #9f9fda",
"f.	c #9191c6",
"g.	c #60608b",
"h.	c #4c4c6a",
"j.	c #7b7b8c",
"k.	c #c6c6c9",
"l.	c #a6a6b5",
"z.	c #646484",
"x.	c #7b7b99",
"c.	c #6d6d85",
"v.	c #8e8e9c",
/* pixels */
"        . X o O + @ # . .       ",
"      . $ % & * = - ; : > .     ",
"  . . , < 1 2 3 4 5 6 7 8 > .   ",
"9 0 q w e r t y u i p a s d f . ",
"g h j k l z x c . . v b n m M c ",
"N B V C Z A .       . S D F : x ",
"G H J K L P I .       . U Y T R ",
"E W Q ! ~ ^ .         . / ( ) _ ",
"  ` ' ] c .           c [ { } | ",
"   .. . ..X.            o.O.+.@.",
"    #.$.%.&.X.. . c x *.=.-.;.c ",
"  . :.>.,.<.1.2.3.4.5.6.7.8.f . ",
"    . 9.0.q.6.w.e.r.t.y.u.| .   ",
"      . i.p.a.s.d.f.g.h.j.c     ",
"        . k.l.z.x.c.v.c .       ",
"              . . .             "};
