/* XPM */
static char * up_xpm[] = {
"10 5 2 1",
" 	c white",
".	c black",
"    ..    ",
"   ....   ",
"  ......  ",
" ........ ",
".........."};
