/* XPM */
static char * rjkff_xpm[] = {
/* width height num_colors chars_per_pixel */
"50 50 3 1",
/* colors */
" 	c #808080",
".	c #004600",
"X	c #000080",
/* pixels */
"                                                  ",
"                    .         .                   ",
"                    .         .                   ",
"                    .         .                   ",
"                    .         .                   ",
"                    .         .                   ",
"                    .         .                   ",
"                    .         .                   ",
"                    .         .                   ",
"                    .         .                   ",
"                    .         .                   ",
"          XXXXXXXXXXXXXXXXXXXXXXXXXXXXXXX         ",
"          X                             X         ",
"          X       XXXX        XXX       X         ",
"          X                             X         ",
"          X       XXX         XXX       X         ",
"          X       X  X        X         X         ",
"          X       XXX         X         X         ",
"          X  XX   X           X    XXXX X         ",
"          X X  X  X           XXX    X  X         ",
"          X X  X                     X  X         ",
" .........X X XX                   X X  X........ ",
"          X  XXX                    X   X         ",
"          X                             X         ",
"          X                             X         ",
"          X                             X         ",
"          X                             X         ",
"          X                             X         ",
"          X XXXX                        X         ",
"          X                             X         ",
"          X  XX                    X  X X         ",
" .........X X  X                   X X  X........ ",
"          X X  X                   XX   X         ",
"          X X XX                   X X  X         ",
"          X  XXX                   X  X X         ",
"          X                             X         ",
"          X              X              X         ",
"          X             X X             X         ",
"          X            X   X            X         ",
"          X           X     X           X         ",
"          X          X       X          X         ",
"          XXXXXXXXXXXXXXXXXXXXXXXXXXXXXXX         ",
"                         .                        ",
"                         .                        ",
"                         .                        ",
"                         .                        ",
"                         .                        ",
"                         .                        ",
"                         .                        ",
"                                                  "};
